<?xml version="1.0"?>
<svg xmlns="http://www.w3.org/2000/svg" xmlns:xlink="http://www.w3.org/1999/xlink" id="Gradient" viewBox="0 0 512 512" width="512" height="512"><defs><linearGradient id="linear-gradient" x1="256" y1="496" x2="256" y2="16" gradientUnits="userSpaceOnUse"><stop offset="0" stop-color="#12c2e9"/><stop offset="0.5" stop-color="#c471ed"/><stop offset="1" stop-color="#f64f59"/></linearGradient></defs><path d="M472,344a88.021,88.021,0,0,0-111.776-84.734,178.752,178.752,0,0,0-58.019-48.3,168.3,168.3,0,0,0-34.717-13.393,96,96,0,1,0-86.96.008c-33.16,8.7-63.155,27.408-87.009,54.772C59.007,291.941,40,347.218,40,408a8,8,0,0,0,4.169,7.023C47.835,417.023,134.983,464,224,464a341.292,341.292,0,0,0,84.331-11.124A87.982,87.982,0,0,0,472,408ZM144,112a80,80,0,1,1,80,80A80.091,80.091,0,0,1,144,112ZM301.315,438.133A323.549,323.549,0,0,1,224,448c-74.188,0-149.593-35.583-167.958-44.844.971-54.992,18.475-104.658,49.538-140.291C136.422,227.485,178.478,208,224,208a152.353,152.353,0,0,1,70.838,17.167,162,162,0,0,1,49.709,40.188A88.1,88.1,0,0,0,296,344v64A87.616,87.616,0,0,0,301.315,438.133ZM456,408a72,72,0,0,1-144,0V344a72,72,0,0,1,144,0Zm-88-56a8,8,0,0,1-8-8,24,24,0,0,1,48,0,8,8,0,0,1-16,0,8,8,0,0,0-16,0A8,8,0,0,1,368,352Zm64.5-36.006a55.849,55.849,0,0,1,4.308,9.34,8,8,0,0,1-15.085,5.332A40.008,40.008,0,0,0,344,344v16a8,8,0,0,1-16,0V344a56.006,56.006,0,0,1,104.5-28.006ZM440,408a56,56,0,0,1-112,0V392a8,8,0,0,1,16,0v16a40,40,0,0,0,80,0,8,8,0,0,1,16,0Zm-80,0a8,8,0,0,1,16,0,8,8,0,0,0,16,0V376a8,8,0,0,1,16,0v32a24,24,0,0,1-48,0Zm72-56a8,8,0,0,1,8,8v16a8,8,0,0,1-16,0V360A8,8,0,0,1,432,352Zm-72,24a8,8,0,1,1,8,8A8,8,0,0,1,360,376Z" style="fill:url(#linear-gradient)"/></svg>
