<svg xmlns="http://www.w3.org/2000/svg" xmlns:xlink="http://www.w3.org/1999/xlink" viewBox="0 0 336.93 260.87"><defs><style>.cls-1,.cls-12,.cls-13,.cls-14{fill:none;}.cls-2{isolation:isolate;}.cls-3{fill:#d1dde8;}.cls-4{fill:#e7edf4;}.cls-17,.cls-5{fill:#235196;}.cls-6{fill:#4dd0e1;}.cls-11,.cls-15,.cls-16,.cls-17,.cls-18,.cls-19,.cls-20,.cls-21,.cls-22,.cls-23,.cls-24,.cls-25,.cls-26,.cls-27,.cls-28,.cls-29,.cls-7,.cls-8{mix-blend-mode:multiply;}.cls-7{fill:url(#linear-gradient);}.cls-8{fill:url(#linear-gradient-2);}.cls-9{clip-path:url(#clip-path);}.cls-10{fill:#fff;}.cls-11{fill:url(#linear-gradient-3);}.cls-12{stroke:#235196;stroke-linejoin:round;}.cls-12,.cls-13,.cls-14{stroke-width:3px;}.cls-13{stroke:#e7edf4;}.cls-13,.cls-14{stroke-linecap:round;stroke-miterlimit:10;}.cls-14{stroke:#d1dde8;}.cls-15{fill:url(#linear-gradient-4);}.cls-16{fill:url(#linear-gradient-5);}.cls-17{opacity:0.6;}.cls-18{fill:url(#linear-gradient-6);}.cls-19{fill:url(#linear-gradient-7);}.cls-20{fill:url(#linear-gradient-8);}.cls-21{fill:url(#linear-gradient-9);}.cls-22{fill:url(#linear-gradient-10);}.cls-23{fill:url(#linear-gradient-11);}.cls-24{fill:url(#linear-gradient-12);}.cls-25{fill:url(#linear-gradient-13);}.cls-26{fill:url(#linear-gradient-14);}.cls-27{fill:url(#linear-gradient-15);}.cls-28{fill:url(#linear-gradient-16);}.cls-29{fill:url(#linear-gradient-17);}</style><linearGradient id="linear-gradient" x1="140.73" y1="230.09" x2="37.59" y2="186.61" gradientUnits="userSpaceOnUse"><stop offset="0" stop-color="#fff" stop-opacity="0"/><stop offset="1" stop-color="#235196"/></linearGradient><linearGradient id="linear-gradient-2" x1="42.54" y1="148.7" x2="106.51" y2="206.92" gradientTransform="translate(140.42 -9.79) rotate(40.39)" xlink:href="#linear-gradient"/><clipPath id="clip-path" transform="translate(-15.64 -26.97)"><ellipse class="cls-1" cx="83.53" cy="186" rx="24.37" ry="19.62" transform="translate(-100.61 98.44) rotate(-40.39)"/></clipPath><linearGradient id="linear-gradient-3" x1="265.97" y1="178.17" x2="10.97" y2="178.17" gradientTransform="matrix(1, 0.09, -0.09, 1, -0.36, -55.05)" xlink:href="#linear-gradient"/><linearGradient id="linear-gradient-4" x1="214.58" y1="254.88" x2="238.42" y2="294.51" gradientTransform="translate(67.87 -65.11) rotate(21.04)" xlink:href="#linear-gradient"/><linearGradient id="linear-gradient-5" x1="234.66" y1="145.7" x2="258.5" y2="185.33" gradientTransform="translate(-63.83 161.18) rotate(-15.79)" xlink:href="#linear-gradient"/><linearGradient id="linear-gradient-6" x1="311.24" y1="121.13" x2="326.47" y2="146.44" gradientTransform="translate(31.53 -101.18) rotate(18.77)" xlink:href="#linear-gradient"/><linearGradient id="linear-gradient-7" x1="344.46" y1="121.25" x2="359.68" y2="146.55" gradientTransform="translate(31.53 -101.18) rotate(18.77)" xlink:href="#linear-gradient"/><linearGradient id="linear-gradient-8" x1="311.18" y1="138.93" x2="326.4" y2="164.23" gradientTransform="translate(31.53 -101.18) rotate(18.77)" xlink:href="#linear-gradient"/><linearGradient id="linear-gradient-9" x1="344.4" y1="139.04" x2="359.62" y2="164.34" gradientTransform="translate(31.53 -101.18) rotate(18.77)" xlink:href="#linear-gradient"/><linearGradient id="linear-gradient-10" x1="311.12" y1="156.72" x2="326.34" y2="182.02" gradientTransform="translate(31.53 -101.18) rotate(18.77)" xlink:href="#linear-gradient"/><linearGradient id="linear-gradient-11" x1="344.34" y1="156.83" x2="359.56" y2="182.14" gradientTransform="translate(31.53 -101.18) rotate(18.77)" xlink:href="#linear-gradient"/><linearGradient id="linear-gradient-12" x1="311.06" y1="174.51" x2="326.28" y2="199.82" gradientTransform="translate(31.53 -101.18) rotate(18.77)" xlink:href="#linear-gradient"/><linearGradient id="linear-gradient-13" x1="344.28" y1="174.63" x2="359.5" y2="199.93" gradientTransform="translate(31.53 -101.18) rotate(18.77)" xlink:href="#linear-gradient"/><linearGradient id="linear-gradient-14" x1="311" y1="192.31" x2="326.22" y2="217.61" gradientTransform="translate(31.53 -101.18) rotate(18.77)" xlink:href="#linear-gradient"/><linearGradient id="linear-gradient-15" x1="344.21" y1="192.42" x2="359.44" y2="217.73" gradientTransform="translate(31.53 -101.18) rotate(18.77)" xlink:href="#linear-gradient"/><linearGradient id="linear-gradient-16" x1="310.94" y1="210.1" x2="326.16" y2="235.41" gradientTransform="translate(31.53 -101.18) rotate(18.77)" xlink:href="#linear-gradient"/><linearGradient id="linear-gradient-17" x1="344.15" y1="210.22" x2="359.37" y2="235.52" gradientTransform="translate(31.53 -101.18) rotate(18.77)" xlink:href="#linear-gradient"/></defs><g class="cls-2"><g id="Objects"><circle class="cls-3" cx="202.87" cy="119.71" r="92.75" transform="matrix(0.11, -0.99, 0.99, 0.11, 45.37, 280.8)"/><circle class="cls-4" cx="299.41" cy="162.62" r="37.51"/><path class="cls-5" d="M133.18,218.61h0l-27.54-47.77L60.36,199.16,88.42,248a17.9,17.9,0,0,0,2.29,3.44c7.74,9.1,23.2,8.68,34.51-.94C135.72,241.54,139,227.82,133.18,218.61Z" transform="translate(-15.64 -26.97)"/><path class="cls-6" d="M116.22,232.44a35.33,35.33,0,0,0,6.49-7.26c-.13-.23-.24-.47-.39-.7h0l-10.69-18.55a35.64,35.64,0,0,1-5.76,6.2c-12.27,10.44-29,10.91-37.44,1.06l13.22,23C90.62,243.12,105.22,241.8,116.22,232.44Z" transform="translate(-15.64 -26.97)"/><path class="cls-7" d="M106.92,256.75a19.52,19.52,0,0,1-2.61-3.94L72.19,197l35.65-22.3-2.2-3.82L60.36,199.16,88.42,248a17.9,17.9,0,0,0,2.29,3.44c4.14,4.87,10.5,7,17.24,6.46C107.6,257.51,107.25,257.14,106.92,256.75Z" transform="translate(-15.64 -26.97)"/><ellipse class="cls-5" cx="83.53" cy="186" rx="26.9" ry="21.65" transform="translate(-116.25 71.48) rotate(-40.39)"/><ellipse class="cls-8" cx="83.53" cy="186" rx="24.37" ry="19.62" transform="translate(-116.25 71.48) rotate(-40.39)"/><g class="cls-9"><path class="cls-3" d="M112.59,196.61l0-4.45h-1a10.11,10.11,0,0,0-18.17.2h-1l0,4.45a10.13,10.13,0,0,0,20.26-.22Z" transform="translate(-15.64 -26.97)"/><circle class="cls-4" cx="102.41" cy="192.27" r="10.13" transform="translate(-121.6 101.77) rotate(-45)"/><path class="cls-10" d="M92.53,190.09a10.17,10.17,0,0,0-.24,2.29,10,10,0,0,0,.29,2.27l19.72-.21a10,10,0,0,0,.24-2.28,10.78,10.78,0,0,0-.29-2.28Z" transform="translate(-15.64 -26.97)"/><path class="cls-3" d="M96,176.05l-4.09-1.77-.41.95a10.11,10.11,0,0,0-7.22,16.68l-.41,1,4.09,1.76a10.12,10.12,0,0,0,8-18.58Z" transform="translate(-15.64 -26.97)"/><path class="cls-4" d="M97.15,187.59a10.12,10.12,0,1,1-5.27-13.31A10.12,10.12,0,0,1,97.15,187.59Z" transform="translate(-15.64 -26.97)"/><path class="cls-10" d="M81.85,191.72a11.11,11.11,0,0,0,2,1.15,10.46,10.46,0,0,0,2.2.66l7.83-18.1a10,10,0,0,0-2-1.15,9.9,9.9,0,0,0-2.2-.66Z" transform="translate(-15.64 -26.97)"/><path class="cls-3" d="M87.67,204.7l-1-4.33-1,.24A10.1,10.1,0,0,0,68,204.8l-1,.25,1,4.33a10.13,10.13,0,0,0,19.71-4.68Z" transform="translate(-15.64 -26.97)"/><circle class="cls-4" cx="76.79" cy="202.71" r="10.13" transform="translate(-52.09 -9.09) rotate(-10.75)"/><path class="cls-10" d="M66.67,202.77a10,10,0,0,0,.26,2.28,10.21,10.21,0,0,0,.79,2.15l19.18-4.55a9.85,9.85,0,0,0-.26-2.28,10.09,10.09,0,0,0-.79-2.16Z" transform="translate(-15.64 -26.97)"/></g><path class="cls-3" d="M105.69,154.84l-1-4.33-1,.24A10.11,10.11,0,0,0,86,155l-1,.24,1,4.33a10.12,10.12,0,1,0,19.7-4.68Z" transform="translate(-15.64 -26.97)"/><path class="cls-4" d="M97.15,162.71a10.13,10.13,0,1,1,7.52-12.2A10.13,10.13,0,0,1,97.15,162.71Z" transform="translate(-15.64 -26.97)"/><path class="cls-10" d="M84.69,152.91a10.44,10.44,0,0,0,.27,2.28,9.58,9.58,0,0,0,.79,2.16l19.18-4.56a10,10,0,0,0-.26-2.28,10.79,10.79,0,0,0-.79-2.15Z" transform="translate(-15.64 -26.97)"/><path class="cls-3" d="M81.2,119.83l-1-4.33-1,.24a10.11,10.11,0,0,0-17.68,4.2l-1,.24,1,4.33a10.12,10.12,0,0,0,19.7-4.68Z" transform="translate(-15.64 -26.97)"/><path class="cls-4" d="M72.66,127.69a10.12,10.12,0,1,1,7.52-12.19A10.12,10.12,0,0,1,72.66,127.69Z" transform="translate(-15.64 -26.97)"/><path class="cls-10" d="M60.2,117.9a10.51,10.51,0,0,0,.27,2.28,10,10,0,0,0,.79,2.16l19.18-4.56a9.91,9.91,0,0,0-.26-2.28,11.12,11.12,0,0,0-.79-2.16Z" transform="translate(-15.64 -26.97)"/><path class="cls-3" d="M64.62,144.09l-4.19-4.39L59.29,141c-10.3-3.86-23.59,1.14-31.66,12.64-6.41,9.12-7.85,20-4.6,28.22l-1.17,1.31,6.22,6.2h0a19.52,19.52,0,0,0,2,1.62c10.61,7.45,26.7,2.8,36-10.37C75,167.88,74.44,154.25,64.62,144.09Z" transform="translate(-15.64 -26.97)"/><path class="cls-4" d="M39.56,194.42A18.5,18.5,0,0,1,37.1,194L21.74,177.18l-3.14-3.43,1.15-1.05,1.67,1.83Z" transform="translate(-15.64 -26.97)"/><path class="cls-4" d="M45.78,194.16c-.62.11-1.25.2-1.87.26L25.08,173.75l1.14-1.05Z" transform="translate(-15.64 -26.97)"/><path class="cls-4" d="M51,192.71c-.53.21-1.06.4-1.6.56l-17.8-19.52,1.15-1.05Z" transform="translate(-15.64 -26.97)"/><path class="cls-4" d="M55.42,190.53c-.46.27-.93.53-1.4.78L38,173.75l1.16-1.05Z" transform="translate(-15.64 -26.97)"/><path class="cls-4" d="M59.37,187.77c-.4.33-.81.64-1.23.95l-13.65-15,1.15-1.05Z" transform="translate(-15.64 -26.97)"/><path class="cls-4" d="M62.87,184.5c-.35.38-.71.75-1.09,1.11L51,173.75l1.16-1.05Z" transform="translate(-15.64 -26.97)"/><path class="cls-4" d="M66,180.65c-.31.44-.62.87-.95,1.28L51.78,167.38l1.14-1Z" transform="translate(-15.64 -26.97)"/><path class="cls-4" d="M68.68,176.29c-.25.48-.52,1-.8,1.43l-16.1-17.67L52.92,159Z" transform="translate(-15.64 -26.97)"/><path class="cls-4" d="M70.84,171.33c-.19.55-.39,1.1-.62,1.63L51.78,152.74l1.14-1.05Z" transform="translate(-15.64 -26.97)"/><path class="cls-4" d="M72.19,165.49c-.08.65-.18,1.3-.31,2l-20.1-22,1.14-1Z" transform="translate(-15.64 -26.97)"/><path class="cls-4" d="M72.31,160.6l-19-20.85-1.52-1.67L52.92,137l2.71,3L72,157.93A19.89,19.89,0,0,1,72.31,160.6Z" transform="translate(-15.64 -26.97)"/><ellipse class="cls-4" cx="41.12" cy="161.41" rx="29.15" ry="23.46" transform="translate(-130.23 75.32) rotate(-54.92)"/><path class="cls-10" d="M45.83,137.42h0a17.29,17.29,0,0,1,10,3.06c9.2,6.46,10.09,21.11,2,32.65-5.31,7.56-13.51,12.26-21.39,12.26a17.28,17.28,0,0,1-10-3c-9.2-6.47-10.09-21.11-2-32.65,5.31-7.57,13.51-12.27,21.39-12.27m0-1c-7.94,0-16.5,4.57-22.21,12.69-8.44,12-7.44,27.25,2.23,34a18.23,18.23,0,0,0,10.57,3.23c7.94,0,16.5-4.56,22.21-12.69,8.43-12,7.44-27.25-2.23-34a18.17,18.17,0,0,0-10.57-3.24Z" transform="translate(-15.64 -26.97)"/><path class="cls-6" d="M277,287.73,137.35,263.9a7.08,7.08,0,0,1-5.87-7.62L149.2,57.14a7.1,7.1,0,0,1,7.13-6.46L298,51.89a7.09,7.09,0,0,1,7,7.72L285.27,281.37A7.1,7.1,0,0,1,277,287.73Z" transform="translate(-15.64 -26.97)"/><polygon class="cls-4" points="260.68 253.71 123.51 230.3 140.37 40.93 279.52 42.12 260.68 253.71"/><polygon class="cls-11" points="260.68 253.71 123.51 230.3 140.37 40.93 279.52 42.12 260.68 253.71"/><path class="cls-10" d="M295.16,69.08,156,67.89s-18.46,155.9-30.27,165.89l139,30.34Z" transform="translate(-15.64 -26.97)"/><path class="cls-4" d="M125.74,233.78s-15.27-7.38-13.91-28.34l124,29.1s25.63,50.65,30.91,16.8l-2,12.78Z" transform="translate(-15.64 -26.97)"/><circle class="cls-5" cx="201.99" cy="60.69" r="3.49" transform="translate(-23.74 15.08) rotate(-11.65)"/><circle class="cls-5" cx="251.82" cy="60.62" r="3.49" transform="translate(-22.8 29.51) rotate(-12.62)"/><path class="cls-12" d="M202,60.69,200.88,73.1a3.39,3.39,0,0,0,3.38,3.69l16.58,0,0-.59a3.55,3.55,0,0,1,3.52-3.25H226a3.55,3.55,0,0,1,3.57,3.84h0l17.73,0a3.38,3.38,0,0,0,3.37-3.09l1.16-13" transform="translate(-15.64 -26.97)"/><line class="cls-13" x1="158.86" y1="72.11" x2="247" y2="74.43"/><line class="cls-13" x1="157.68" y1="85.34" x2="245.82" y2="87.66"/><line class="cls-13" x1="155.51" y1="98.48" x2="243.65" y2="100.8"/><line class="cls-13" x1="153.33" y1="111.62" x2="241.47" y2="113.94"/><line class="cls-13" x1="151.16" y1="124.76" x2="239.3" y2="127.08"/><path class="cls-4" d="M209.45,184.68a13.92,13.92,0,1,1-12.64-15.11A13.93,13.93,0,0,1,209.45,184.68Z" transform="translate(-15.64 -26.97)"/><path class="cls-14" d="M169.84,192.2A22.28,22.28,0,0,1,165.11,175c.22-1.47.81-3.16,2.25-3.57,2.11-.6,3.62,2,4.3,4.06l2.62,8.08a2.31,2.31,0,0,0,.82,1.34c2.13,1.33,3.14-4.79,5.48-3.88,1.28.5.88,2.48,1.64,3.62s2.84,1.07,4.2.32,2.57-1.89,4.1-2,2.93.65,4.41.49c2.57-.28,4.58-3.37,7.07-2.67" transform="translate(-15.64 -26.97)"/><path class="cls-10" d="M194.57,267.94l-21.63-8.32a7.63,7.63,0,0,0-9.86,4.38h0a7.62,7.62,0,0,0,4.38,9.85l21.63,8.33A7.64,7.64,0,0,0,199,277.8h0A7.63,7.63,0,0,0,194.57,267.94Z" transform="translate(-15.64 -26.97)"/><path class="cls-5" d="M194.57,267.94l-10.82-4.16L178.27,278l10.82,4.16a7.63,7.63,0,0,0,5.48-14.24Z" transform="translate(-15.64 -26.97)"/><path class="cls-15" d="M194.36,277.93l-28-10.76a7.59,7.59,0,0,1-3.48-2.7,7.62,7.62,0,0,0,4.54,9.38l21.63,8.33a7.62,7.62,0,0,0,9.65-3.93A7.59,7.59,0,0,1,194.36,277.93Z" transform="translate(-15.64 -26.97)"/><path class="cls-10" d="M226.86,241.28l-22.3,6.3A7.63,7.63,0,0,0,199.3,257h0a7.62,7.62,0,0,0,9.41,5.26L231,256a7.63,7.63,0,0,0,5.27-9.42h0A7.63,7.63,0,0,0,226.86,241.28Z" transform="translate(-15.64 -26.97)"/><path class="cls-5" d="M226.86,241.28l-11.15,3.15,4.15,14.68L231,256a7.63,7.63,0,1,0-4.15-14.68Z" transform="translate(-15.64 -26.97)"/><path class="cls-16" d="M232.68,249.39l-28.83,8.16a7.61,7.61,0,0,1-4.39-.08,7.61,7.61,0,0,0,9.25,4.79L231,256a7.63,7.63,0,0,0,5.38-8.93A7.53,7.53,0,0,1,232.68,249.39Z" transform="translate(-15.64 -26.97)"/><polygon class="cls-6" points="96.17 41.33 88.49 41.33 88.49 33.65 79.93 33.65 79.93 41.33 72.24 41.33 72.24 49.9 79.93 49.9 79.93 57.58 88.49 57.58 88.49 49.9 96.17 49.9 96.17 41.33"/><polygon class="cls-5" points="117.98 72.2 112.76 72.2 112.76 66.98 106.95 66.98 106.95 72.2 101.73 72.2 101.73 78.01 106.95 78.01 106.95 83.23 112.76 83.23 112.76 78.01 117.98 78.01 117.98 72.2"/><polygon class="cls-6" points="322.62 58.6 317.4 58.6 317.4 53.38 311.59 53.38 311.59 58.6 306.38 58.6 306.38 64.41 311.59 64.41 311.59 69.63 317.4 69.63 317.4 64.41 322.62 64.41 322.62 58.6"/><path class="cls-5" d="M308.36,240.77l36.53-106.28a4.47,4.47,0,0,0-3.11-5.49l-61.4-21.1a4.47,4.47,0,0,0-5.82,2.42L238,216.61a4.48,4.48,0,0,0,3.11,5.49l61.4,21.1A4.47,4.47,0,0,0,308.36,240.77Z" transform="translate(-15.64 -26.97)"/><path class="cls-17" d="M298.24,127.44l-14-4.76a4.87,4.87,0,0,0-6.18,3h0a4.87,4.87,0,0,0,3,6.18l14,4.76a4.87,4.87,0,0,0,6.18-3h0A4.87,4.87,0,0,0,298.24,127.44Z" transform="translate(-15.64 -26.97)"/><path class="cls-17" d="M329.65,138.23l-14-4.76a4.88,4.88,0,0,0-6.18,3.05h0a4.87,4.87,0,0,0,3,6.17l14,4.76a4.85,4.85,0,0,0,6.17-3h0A4.87,4.87,0,0,0,329.65,138.23Z" transform="translate(-15.64 -26.97)"/><path class="cls-17" d="M292.54,144l-14-4.76a4.85,4.85,0,0,0-6.17,3h0a4.86,4.86,0,0,0,3,6.18l14,4.76a4.88,4.88,0,0,0,6.18-3h0A4.87,4.87,0,0,0,292.54,144Z" transform="translate(-15.64 -26.97)"/><path class="cls-17" d="M324,154.8l-14-4.76a4.86,4.86,0,0,0-6.17,3h0a4.87,4.87,0,0,0,3,6.18l14,4.76a4.87,4.87,0,0,0,6.18-3h0A4.88,4.88,0,0,0,324,154.8Z" transform="translate(-15.64 -26.97)"/><path class="cls-17" d="M286.85,160.57l-14-4.76a4.88,4.88,0,0,0-6.18,3.05h0a4.87,4.87,0,0,0,3,6.17l14,4.76a4.85,4.85,0,0,0,6.17-3h0A4.86,4.86,0,0,0,286.85,160.57Z" transform="translate(-15.64 -26.97)"/><path class="cls-17" d="M318.26,171.37l-14-4.76a4.85,4.85,0,0,0-6.17,3h0a4.86,4.86,0,0,0,3,6.18l14,4.76a4.88,4.88,0,0,0,6.18-3.05h0A4.87,4.87,0,0,0,318.26,171.37Z" transform="translate(-15.64 -26.97)"/><path class="cls-17" d="M281,177.66l-14-4.76a4.88,4.88,0,0,0-6.18,3h0a4.87,4.87,0,0,0,3,6.18l14,4.76a4.85,4.85,0,0,0,6.17-3h0A4.86,4.86,0,0,0,281,177.66Z" transform="translate(-15.64 -26.97)"/><path class="cls-17" d="M312.39,188.46l-14-4.77a4.88,4.88,0,0,0-6.18,3.05h0a4.88,4.88,0,0,0,3.05,6.18l14,4.76a4.87,4.87,0,0,0,6.17-3.05h0A4.85,4.85,0,0,0,312.39,188.46Z" transform="translate(-15.64 -26.97)"/><path class="cls-17" d="M275.16,194.61l-14-4.76a4.87,4.87,0,0,0-6.18,3h0a4.87,4.87,0,0,0,3,6.18l14,4.76a4.88,4.88,0,0,0,6.18-3h0A4.88,4.88,0,0,0,275.16,194.61Z" transform="translate(-15.64 -26.97)"/><path class="cls-17" d="M306.57,205.4l-14-4.76a4.88,4.88,0,0,0-6.18,3h0a4.87,4.87,0,0,0,3,6.18l14,4.76a4.86,4.86,0,0,0,6.18-3h0A4.87,4.87,0,0,0,306.57,205.4Z" transform="translate(-15.64 -26.97)"/><path class="cls-17" d="M269.46,211.18l-14-4.77a4.87,4.87,0,0,0-6.17,3.05h0a4.85,4.85,0,0,0,3,6.17l14,4.77a4.88,4.88,0,0,0,6.18-3.05h0A4.87,4.87,0,0,0,269.46,211.18Z" transform="translate(-15.64 -26.97)"/><path class="cls-17" d="M300.87,222l-14-4.76a4.86,4.86,0,0,0-6.17,3h0a4.86,4.86,0,0,0,3,6.18l14,4.76a4.88,4.88,0,0,0,6.18-3h0A4.87,4.87,0,0,0,300.87,222Z" transform="translate(-15.64 -26.97)"/><path class="cls-10" d="M299.17,124.73l-14-4.76a4.87,4.87,0,0,0-6.18,3h0a4.86,4.86,0,0,0,3,6.17L296,134a4.86,4.86,0,0,0,6.18-3h0A4.87,4.87,0,0,0,299.17,124.73Z" transform="translate(-15.64 -26.97)"/><path class="cls-18" d="M299.29,131.11,281.18,125a4.85,4.85,0,0,1-2.29-1.63,4.87,4.87,0,0,0,3.13,5.87L296,134a4.86,4.86,0,0,0,6.06-2.74A4.88,4.88,0,0,1,299.29,131.11Z" transform="translate(-15.64 -26.97)"/><path class="cls-10" d="M330.58,135.53l-14-4.76a4.86,4.86,0,0,0-6.18,3h0a4.88,4.88,0,0,0,3,6.18l14,4.76a4.87,4.87,0,0,0,6.18-3.05h0A4.86,4.86,0,0,0,330.58,135.53Z" transform="translate(-15.64 -26.97)"/><path class="cls-19" d="M330.7,141.9l-18.11-6.15a4.9,4.9,0,0,1-2.29-1.63,4.87,4.87,0,0,0,3.13,5.87l14,4.76A4.87,4.87,0,0,0,333.5,142,4.79,4.79,0,0,1,330.7,141.9Z" transform="translate(-15.64 -26.97)"/><path class="cls-10" d="M293.38,141.56l-14-4.76a4.87,4.87,0,0,0-6.17,3h0a4.86,4.86,0,0,0,3,6.18l14,4.76a4.87,4.87,0,0,0,6.18-3h0A4.88,4.88,0,0,0,293.38,141.56Z" transform="translate(-15.64 -26.97)"/><path class="cls-20" d="M293.51,147.94l-18.12-6.16a4.82,4.82,0,0,1-2.28-1.63,4.87,4.87,0,0,0,3.13,5.87l14,4.76a4.86,4.86,0,0,0,6.06-2.75A4.79,4.79,0,0,1,293.51,147.94Z" transform="translate(-15.64 -26.97)"/><path class="cls-10" d="M324.8,152.36l-14-4.77a4.87,4.87,0,0,0-6.18,3h0a4.86,4.86,0,0,0,3,6.17l14,4.77a4.88,4.88,0,0,0,6.18-3.05h0A4.87,4.87,0,0,0,324.8,152.36Z" transform="translate(-15.64 -26.97)"/><path class="cls-21" d="M324.92,158.73l-18.12-6.15a4.82,4.82,0,0,1-2.28-1.64,4.87,4.87,0,0,0,3.13,5.87l14,4.77a4.87,4.87,0,0,0,6.06-2.75A4.88,4.88,0,0,1,324.92,158.73Z" transform="translate(-15.64 -26.97)"/><path class="cls-10" d="M287.6,158.39l-14-4.76a4.87,4.87,0,0,0-6.18,3h0a4.88,4.88,0,0,0,3,6.18l14,4.76a4.88,4.88,0,0,0,6.18-3h0A4.87,4.87,0,0,0,287.6,158.39Z" transform="translate(-15.64 -26.97)"/><path class="cls-22" d="M287.72,164.76l-18.11-6.15a4.82,4.82,0,0,1-2.28-1.63,4.86,4.86,0,0,0,3.13,5.87l14,4.76a4.87,4.87,0,0,0,6.06-2.75A4.82,4.82,0,0,1,287.72,164.76Z" transform="translate(-15.64 -26.97)"/><path class="cls-10" d="M319,169.18l-14-4.76a4.87,4.87,0,0,0-6.17,3.05h0a4.85,4.85,0,0,0,3,6.17l14,4.76a4.86,4.86,0,0,0,6.18-3h0A4.88,4.88,0,0,0,319,169.18Z" transform="translate(-15.64 -26.97)"/><path class="cls-23" d="M319.13,175.56,301,169.4a4.82,4.82,0,0,1-2.28-1.63,4.86,4.86,0,0,0,3.13,5.87l14,4.76a4.87,4.87,0,0,0,6.06-2.74A4.91,4.91,0,0,1,319.13,175.56Z" transform="translate(-15.64 -26.97)"/><path class="cls-10" d="M281.82,175.22l-14-4.76a4.86,4.86,0,0,0-6.18,3h0a4.88,4.88,0,0,0,3.05,6.18l14,4.76a4.87,4.87,0,0,0,6.17-3.05h0A4.85,4.85,0,0,0,281.82,175.22Z" transform="translate(-15.64 -26.97)"/><path class="cls-24" d="M281.94,181.59l-18.11-6.15a4.9,4.9,0,0,1-2.29-1.63,4.87,4.87,0,0,0,3.14,5.87l14,4.76a4.87,4.87,0,0,0,6.06-2.75A4.82,4.82,0,0,1,281.94,181.59Z" transform="translate(-15.64 -26.97)"/><path class="cls-10" d="M313.23,186l-14-4.76a4.87,4.87,0,0,0-6.18,3h0a4.87,4.87,0,0,0,3,6.18l14,4.76a4.86,4.86,0,0,0,6.17-3h0A4.86,4.86,0,0,0,313.23,186Z" transform="translate(-15.64 -26.97)"/><path class="cls-25" d="M313.35,192.39l-18.11-6.16A4.82,4.82,0,0,1,293,184.6a4.85,4.85,0,0,0,3.13,5.87l14,4.76a4.87,4.87,0,0,0,6.06-2.75A4.82,4.82,0,0,1,313.35,192.39Z" transform="translate(-15.64 -26.97)"/><path class="cls-10" d="M276,192.05l-14-4.77a4.87,4.87,0,0,0-6.18,3.05h0a4.86,4.86,0,0,0,3,6.17l14,4.77a4.87,4.87,0,0,0,6.18-3.05h0A4.86,4.86,0,0,0,276,192.05Z" transform="translate(-15.64 -26.97)"/><path class="cls-26" d="M276.16,198.42l-18.11-6.15a4.8,4.8,0,0,1-2.29-1.64,4.87,4.87,0,0,0,3.13,5.87l14,4.77a4.87,4.87,0,0,0,6.06-2.75A4.88,4.88,0,0,1,276.16,198.42Z" transform="translate(-15.64 -26.97)"/><path class="cls-10" d="M307.45,202.84l-14-4.76a4.87,4.87,0,0,0-6.18,3h0a4.88,4.88,0,0,0,3,6.18l14,4.76a4.87,4.87,0,0,0,6.17-3h0A4.87,4.87,0,0,0,307.45,202.84Z" transform="translate(-15.64 -26.97)"/><path class="cls-27" d="M307.57,209.21l-18.11-6.15a4.9,4.9,0,0,1-2.29-1.63,4.87,4.87,0,0,0,3.13,5.87l14,4.76a4.86,4.86,0,0,0,6.05-2.75A4.79,4.79,0,0,1,307.57,209.21Z" transform="translate(-15.64 -26.97)"/><path class="cls-10" d="M270.25,208.87l-14-4.76a4.87,4.87,0,0,0-6.17,3h0a4.85,4.85,0,0,0,3,6.17l14,4.76a4.86,4.86,0,0,0,6.18-3h0A4.88,4.88,0,0,0,270.25,208.87Z" transform="translate(-15.64 -26.97)"/><path class="cls-28" d="M270.38,215.25l-18.12-6.16a4.82,4.82,0,0,1-2.28-1.63,4.87,4.87,0,0,0,3.13,5.87l14,4.76a4.86,4.86,0,0,0,6.06-2.74A4.88,4.88,0,0,1,270.38,215.25Z" transform="translate(-15.64 -26.97)"/><path class="cls-10" d="M301.67,219.67l-14-4.76a4.86,4.86,0,0,0-6.18,3h0a4.87,4.87,0,0,0,3,6.18l14,4.76a4.88,4.88,0,0,0,6.18-3h0A4.87,4.87,0,0,0,301.67,219.67Z" transform="translate(-15.64 -26.97)"/><path class="cls-29" d="M301.79,226l-18.12-6.15a4.87,4.87,0,0,1-2.28-1.63,4.87,4.87,0,0,0,3.13,5.87l14,4.76a4.87,4.87,0,0,0,6.06-2.75A4.79,4.79,0,0,1,301.79,226Z" transform="translate(-15.64 -26.97)"/><path class="cls-6" d="M315.05,261.61a6.58,6.58,0,1,1-6.58-6.58A6.58,6.58,0,0,1,315.05,261.61Z" transform="translate(-15.64 -26.97)"/><path class="cls-6" d="M60.67,239.67a6.58,6.58,0,1,1-6.58-6.58A6.57,6.57,0,0,1,60.67,239.67Z" transform="translate(-15.64 -26.97)"/><path class="cls-6" d="M324.79,275.44a3.49,3.49,0,1,1-3.48-3.48A3.48,3.48,0,0,1,324.79,275.44Z" transform="translate(-15.64 -26.97)"/><path class="cls-6" d="M43.42,228.22a3.49,3.49,0,1,1-3.48-3.49A3.48,3.48,0,0,1,43.42,228.22Z" transform="translate(-15.64 -26.97)"/></g></g></svg>