<?xml version="1.0" encoding="utf-8"?>
<!-- Generator: Adobe Illustrator 24.3.0, SVG Export Plug-In . SVG Version: 6.00 Build 0)  -->
<svg version="1.1" id="OBJECTS" xmlns="http://www.w3.org/2000/svg" xmlns:xlink="http://www.w3.org/1999/xlink" x="0px" y="0px"
	 viewBox="0 0 523.91 500" style="enable-background:new 0 0 523.91 500;" xml:space="preserve">
<style type="text/css">
	.st0{fill:#E7F5FE;}
	.st1{fill:none;stroke:#D2E8F9;stroke-miterlimit:10;}
	.st2{fill:none;stroke:#D2E8F9;stroke-miterlimit:10;stroke-dasharray:4.0148,4.0148;}
	.st3{fill:#F0FAFF;}
	.st4{fill:#B5DDF7;}
	.st5{fill:none;stroke:#D2E8F9;stroke-linecap:round;stroke-linejoin:round;stroke-miterlimit:10;}
	.st6{fill:#26387A;}
	.st7{fill:#FFB288;}
	.st8{fill:none;stroke:#0061A6;stroke-width:0.5;stroke-miterlimit:10;}
	.st9{fill:#D9F0FF;}
	.st10{fill:none;stroke:#94C1F2;stroke-width:0.5;stroke-miterlimit:10;}
	.st11{fill:none;stroke:#B4E8FD;stroke-width:5;stroke-linecap:round;stroke-linejoin:round;stroke-miterlimit:10;}
	.st12{fill:#FDAE2B;}
	.st13{fill:#EF8417;}
	.st14{opacity:0.5;fill:#FDAE2B;}
	.st15{fill:#FFC840;}
	.st16{fill:#0061A6;}
	.st17{fill:#EF9467;}
	.st18{fill:#E2E8ED;}
</style>
<g>
	<g>
		<g>
			<path class="st0" d="M464.19,362.4c-2.7-5.15-13.68-9.29-18.59-10.23c-26.22-5-53.68-4.31-80.23-4.22
				c-28.92,0.09-56.52,4.72-85.2,6.86c-14.92,1.11-30.68-0.89-45.63-1.41c-24.62-0.85-49.23-1.85-73.84-3
				c-21.22-0.99-43.24,1.23-61.96,12.93c-2.13,1.33-4.28,2.94-5.24,5.32c-6.08,14.99,69.69,13.1,79.56,13.36
				c49.8,1.3,99.63,1.97,149.43,0.62c37.03-1,75.62-0.94,112.35-6.17c8.12-1.16,19.17-1.57,26.19-6.35
				C464.9,367.47,465.46,364.82,464.19,362.4z"/>
		</g>
		<g>
			<g>
				<g>
					<path class="st1" d="M431.95,157.84c0.65,0,1.32,0.01,2,0.04"/>
					<path class="st2" d="M437.96,158.15c12.91,1.31,28.68,6.77,26.84,17.94c-2.94,17.81-82.08,11.24-100.98,11.42
						c-38.01,0.37-76.43,0.51-113.7,8.83c-9.06,2.02-22.04,6.48-21.06,18.04c0.34,4.04,2.73,7.69,5.75,10.43
						c10.88,9.83,26.05,10.77,40.13,12.5c21.29,2.61,122.58-0.87,155.69,9.99c6.52,2.14,14.67,4.89,14.94,14.21
						c0.69,23.68-58.13,22.52-75.77,22.97c-47.09,1.2-94.23,0.73-141.32-0.2c-38.06-0.75-76.23-1.42-114.22-3.87
						c-14.16-0.92-37.33-1.19-48.13-11.82c-6.04-5.94-6.83-16.75,2.72-22.27c6.73-3.89,26.47-2.19,34.07-2.84
						c22.98-1.98,16.03-15.92-2.59-17.7"/>
					<path class="st1" d="M98.32,225.61c-0.65-0.03-1.32-0.05-2-0.05"/>
				</g>
			</g>
			<g>
				<path class="st3" d="M433.3,175.15l-6.06-32.05c-0.36-1.92-2.66-2.72-4.14-1.45l-24.73,21.28c-1.48,1.27-1.02,3.67,0.82,4.31
					l30.79,10.77C431.82,178.66,433.66,177.07,433.3,175.15z"/>
				<g>
					<path class="st4" d="M428.63,174.67c-0.17,0-0.35-0.03-0.52-0.09l-25.32-8.86c-0.53-0.18-0.92-0.64-1.03-1.19
						c-0.1-0.55,0.09-1.12,0.52-1.48l20.34-17.5c0.42-0.37,1.01-0.48,1.54-0.29c0.53,0.18,0.92,0.64,1.03,1.19l4.99,26.36
						c0.1,0.55-0.09,1.12-0.52,1.49C429.37,174.53,429,174.67,428.63,174.67z M404.15,164.07l23.93,8.37l-4.71-24.91L404.15,164.07z
						"/>
				</g>
				<path class="st4" d="M417.63,163.9L417.63,163.9c-0.48-0.17-0.74-0.68-0.6-1.17l2.51-8.81c0.24-0.81,1.12-1.26,1.92-0.98l0,0
					c0.8,0.28,1.21,1.17,0.89,1.96l-3.53,8.45C418.64,163.83,418.11,164.07,417.63,163.9z"/>
				<path class="st4" d="M417.82,166.31c-0.18,0.5-0.73,0.77-1.23,0.59c-0.5-0.18-0.77-0.73-0.59-1.23c0.18-0.5,0.73-0.77,1.23-0.59
					C417.73,165.25,418,165.8,417.82,166.31z"/>
			</g>
			<g>
				<path class="st3" d="M94.4,214.78l-19.94-9.92c-1.19-0.59-2.58,0.33-2.5,1.65l1.37,22.23c0.08,1.33,1.57,2.07,2.68,1.33
					l18.56-12.3C95.69,217.04,95.59,215.38,94.4,214.78z"/>
				<g>
					<path class="st4" d="M92.21,217.12c-0.07,0.09-0.16,0.18-0.26,0.25l-15.27,10.12c-0.32,0.21-0.73,0.24-1.07,0.07
						c-0.34-0.17-0.57-0.51-0.59-0.9l-1.13-18.28c-0.02-0.38,0.16-0.75,0.48-0.96c0.32-0.21,0.73-0.24,1.07-0.07l16.4,8.16
						c0.34,0.17,0.57,0.51,0.59,0.9C92.44,216.67,92.36,216.92,92.21,217.12z M76.35,226.07l14.43-9.56l-15.49-7.71L76.35,226.07z"
						/>
				</g>
				<path class="st4" d="M81.82,218.67L81.82,218.67c-0.29,0.19-0.68,0.12-0.88-0.16l-3.76-5c-0.34-0.47-0.22-1.13,0.26-1.45l0,0
					c0.48-0.32,1.14-0.17,1.43,0.32l3.14,5.41C82.19,218.09,82.11,218.47,81.82,218.67z"/>
				<path class="st4" d="M83.2,219.56c0.2,0.3,0.12,0.71-0.19,0.92c-0.3,0.2-0.71,0.12-0.92-0.19c-0.2-0.3-0.12-0.71,0.19-0.92
					C82.59,219.17,83,219.25,83.2,219.56z"/>
			</g>
			<g>
				<circle class="st1" cx="108.21" cy="257.94" r="1.66"/>
				<circle class="st1" cx="354.63" cy="227.23" r="1.66"/>
				<circle class="st1" cx="223.89" cy="180.7" r="1.66"/>
				<circle class="st1" cx="221.9" cy="306.96" r="1.66"/>
				<g>
					<line class="st5" x1="260.59" y1="209.2" x2="260.59" y2="212.96"/>
					<line class="st5" x1="262.46" y1="211.08" x2="258.71" y2="211.08"/>
				</g>
				<g>
					<line class="st5" x1="328" y1="161.22" x2="328" y2="164.97"/>
					<line class="st5" x1="329.87" y1="163.1" x2="326.12" y2="163.1"/>
				</g>
				<g>
					<line class="st5" x1="432.28" y1="262.53" x2="432.28" y2="266.29"/>
					<line class="st5" x1="434.16" y1="264.41" x2="430.41" y2="264.41"/>
				</g>
			</g>
		</g>
		<g>
			<g>
				<g>
					<path class="st6" d="M294.3,369.9c0,0-6.99,2.98-6.99,4.47c0,0.86,9.61-0.37,10.19-0.95c0.93-0.93-0.38-3.4-0.38-3.4
						L294.3,369.9z"/>
					<path class="st7" d="M293.85,365.73l0.45,4.3c0,0,0.23,0.69,1.21,0.77c0.98,0.08,1.62-0.77,1.62-0.77l-0.35-5.38"/>
					<g>
						<path class="st6" d="M306.06,267.15c2.54,10.25,1.6,15.45-2.13,23.18c-2.26,25.99-3.83,51.87-6.87,77.21l-3.21,0.18
							c-7.3-24.67-14.01-61.55-13.15-95.26"/>
					</g>
					<g>
						<path class="st8" d="M304.48,270.67c0.93,2.38,1.16,5.06,1.08,7.59c-0.12,3.89-1.7,7.41-2.73,11.09
							c-1.36,4.92-1.47,9.81-1.84,14.85c-0.58,7.89-1.18,15.77-1.78,23.66c-0.98,12.86-1.97,25.72-2.97,38.58
							c-0.03,0.38-0.06,0.76-0.09,1.15"/>
					</g>
				</g>
				<g>
					<path class="st6" d="M322.18,370.9c0,0-6.99,2.98-6.99,4.47c0,0.86,9.61-0.37,10.19-0.95c0.93-0.93-0.38-3.4-0.38-3.4
						L322.18,370.9z"/>
					<path class="st7" d="M321.73,366.73l0.45,4.3c0,0,0.23,0.69,1.21,0.77c0.98,0.08,1.62-0.77,1.62-0.77l-0.35-5.38"/>
					<g>
						<path class="st6" d="M329.31,266.29c3.22,10.05,2.62,15.31-0.59,23.27c-0.53,26.08-2.33,53.31-3.68,78.8h-3.3
							c-8.91-24.13-18.46-61.39-19.84-95.09"/>
					</g>
					<g>
						<path class="st8" d="M327.72,270.45c0,0,3.73,8.72-2.57,20.97c-0.73,11.56-1.1,76.93-1.1,76.93"/>
						<path class="st8" d="M318.5,273.21c0.64,0.99,1.65,1.69,2.73,2.13c1.09,0.44,2.25,0.63,3.41,0.77
							c1.38,0.17,2.77,0.28,4.16,0.21"/>
						<path class="st8" d="M318.95,274.85c1.19,1.08,2.71,1.74,4.27,2.1c1.56,0.36,3.17,0.43,4.77,0.45"/>
					</g>
				</g>
			</g>
			<g>
				<g>
					<path class="st7" d="M291.15,217.69c-11.12,19.35-23.09,36.87-30.18,58.02l-2.11-1.12c0.54-19.64,6.91-48.2,15.27-65.99"/>
				</g>
				<g>
					<path class="st9" d="M285.72,197.49c0,0-3.44,0.97-7.49,3.66c-3.81,2.53-6.69,6.3-8.64,10.43c-1.96,4.13-3.03,8.63-3.72,13.15
						c0,0,4.65,2.33,9.99,2.99c5.33,0.67,11.01,0,11.01,0"/>
				</g>
			</g>
			<g>
				<g>
					<path class="st9" d="M277.43,208.92c-1.18,20.92-0.28,42.45,0.25,62.8c0,0,7.3,1.94,25.02,1.94c17.66,0,29.22-5.38,29.22-5.38
						c-3.42-20.92-6.14-46.58-14.52-63.8c0,0-9.46-10.2-18.78-10.62c-1.88-0.08-3.75,0.6-5.54,1.43c-1.32,0.61-7.36,2.09-7.36,2.09
						L277.43,208.92z"/>
				</g>
				<path class="st10" d="M277.33,210.79c-0.46,4.02-0.46,16.44-0.46,16.44"/>
			</g>
			<g>
				<path class="st11" d="M294.96,278.31c29.62-3.28,42.04,34.25,48.78,48.81c15.94,34.42,76.08,30.58,103.49,30.58
					c35.9,0,51.65,12.1,34.9,18.44"/>
				<path class="st12" d="M305.17,280c0,15.24-11.53,24.43-21.39,24.43h-16.16v-48.86h16.16C293.64,255.57,305.17,264.77,305.17,280
					z"/>
				<path class="st13" d="M296.84,280c0,14.89-8.82,26.95-19.69,26.95h-17.84v-53.91h17.84C288.02,253.05,296.84,265.12,296.84,280z
					"/>
				<path class="st14" d="M300.79,265.28c-3.86,5.26-7.62,10.58-11.27,15.98c0.52-0.1,1-0.35,1.38-0.72c0,0.41-0.65,1.11-0.07,1.37
					c0.57,0.26,1.17-0.41,1.77-0.23c0.56-0.13,1.08-0.83,1.49-1.24c-0.18,0.42-0.22,0.72-0.25,0.94c3.93-1.53,7.45-5.2,10.51-8.15
					C303.6,270.23,302.36,267.57,300.79,265.28z"/>
				<ellipse class="st15" cx="260.59" cy="280" rx="19.69" ry="26.95"/>
				<g>
					<g>
						<path class="st13" d="M262.23,289.55c0,2.21-1.51,4.01-3.38,4.01c-1.86,0-3.38-1.79-3.38-4.01c0-2.21,1.51-4.01,3.38-4.01
							C260.72,285.55,262.23,287.34,262.23,289.55z"/>
					</g>
					<g>
						<path class="st13" d="M262.23,270.45c0,2.21-1.51,4.01-3.38,4.01c-1.86,0-3.38-1.79-3.38-4.01c0-2.21,1.51-4.01,3.38-4.01
							C260.72,266.45,262.23,268.24,262.23,270.45z"/>
					</g>
				</g>
			</g>
			<g>
				<g>
					<path class="st7" d="M322.79,224.36c0,0,1.25,12.73-4.44,23.32c-4.87,9.05-14.54,20.77-22.35,27.23l-1.88-0.46
						c2.72-10.44,11.3-28.97,11.84-35.91c0.53-6.95,0.41-15,0.53-18.87"/>
				</g>
				<path class="st9" d="M298.62,193.86c0,0,10.48,0.72,16.56,5.85c8.68,7.33,9.96,21.69,9.96,25.02
					c-2.62,2.83-8.36,2.98-12.54,2.98s-7.23-2-7.23-2l-0.85-15.83"/>
				<g>
					<path class="st7" d="M294.88,272.91c-1.19,0.12-2.35,0.7-3.35,1.48c-0.92,0.72-2.05,1.92-1.93,2.47
						c0.12,0.58,1.63-0.53,1.81-0.31c0.18,0.22-2.58,4.39-2.06,4.7c0.52,0.31,2.87-3.46,2.87-3.46s-2.28,4.03-1.4,4.12
						c0.74,0.07,2.76-3.74,2.76-3.74s-1.71,3.41-1.12,3.54c0.59,0.13,2.17-3.27,2.17-3.27s-1.29,2.9-0.8,2.95
						c0.25,0.02,1.52-1.42,2.06-3.17c0.52-1.72,1.14-3.22,0.66-4.56"/>
				</g>
				<line class="st10" x1="305.81" y1="211.54" x2="305.81" y2="225.97"/>
			</g>
			<g>
				<g>
					<path class="st6" d="M276.9,180.55c-0.05,0.63-0.08,1.25-0.08,1.88c0.01,1.36,0.19,2.78,0.97,3.9
						c0.54,0.76,1.35,1.33,2.25,1.58c0.64,0.17,1.47,0.1,1.75-0.5c0.1-0.21,0.1-0.45,0.1-0.69c-0.01-2.33-0.46-4.65-1.33-6.81"/>
				</g>
				<g>
					<path class="st7" d="M292.72,181.86c-0.9-3.5-3.73-8.41-8.33-7.43c-2.89,0.62-5.55,2.59-6.4,5.34c-1.02,3.29,0.63,7.12,2.6,9.8
						c0.73,0.99,1.59,1.93,2.71,2.52c2.66,1.38,6.26,0.25,8.07-2.05C293.18,187.76,293.43,184.64,292.72,181.86z"/>
				</g>
				<path class="st7" d="M286.26,191.03l1.5,5.49l-2.05,0.97c0,0,1.56,2.08,4.65,1.63c6.28-0.91,8.25-5.26,8.25-5.26l-3.54-0.37
					l-3.92-6.69"/>
				<g>
					<path class="st6" d="M295.78,178.04c-0.44-2.41-2.16-4.45-4.25-5.72c-3.72-2.26-9.01-2.44-12.31,0.67
						c-1.88,1.77-5.27,8.05-1.22,9.29c1.27,0.39,2.57-0.38,3.67-1.12c1.12-0.75,2.24-1.5,3.36-2.25c0.4-0.27,0.83-0.55,1.31-0.57
						c0.79-0.03,1.45,0.65,1.73,1.39c0.28,0.74,0.3,1.55,0.49,2.32c0.13,0.54,0.37,1.1,0.84,1.41c0.47,0.3,1.22,0.21,1.46-0.29
						c0.17-0.35,0.05-0.76,0.04-1.15c-0.01-0.39,0.21-0.87,0.6-0.85c0.14,0.01,0.27,0.08,0.38,0.16c0.98,0.76,0.66,2.29,0.99,3.48
						c0.04,0.16-0.28,2.58-0.18,2.7C295.8,186.8,296.09,179.77,295.78,178.04z"/>
				</g>
				<g>
					<path class="st7" d="M291.16,181.49c-0.07-0.44,0.35-0.85,0.8-0.9c0.45-0.05,0.88,0.18,1.22,0.47
						c0.59,0.49,1.01,1.21,1.02,1.97c0.01,0.6-0.23,1.18-0.56,1.68c-0.22,0.34-0.51,0.67-0.9,0.79c-0.5,0.16-1.05-0.07-1.41-0.45"/>
				</g>
			</g>
		</g>
		<g>
			<g>
				<g>
					<path class="st6" d="M179.8,369.75c0,0,6.74,1.12,6.93,2.61c0.11,0.85-9.45,1.86-10.1,1.36c-1.04-0.8,0.24-3.79,0.24-3.79
						L179.8,369.75z"/>
					<path class="st7" d="M179.27,365.61l0.55,4.26c0,0-0.14,0.72-1.1,0.92c-0.96,0.2-1.71-0.56-1.71-0.56l-0.79-5.32"/>
					<g>
						<path class="st6" d="M154.06,268.47c-1.21,10.49-1.27,15.53,3.42,22.71c2.22,10.15,5.63,20.53,8.21,30.92
							c-1.11,12.41,6.67,32.17,10.85,46.28l3.02-0.52c4.07-25.4,5.57-64.36,1.92-98.46"/>
					</g>
					<path class="st8" d="M156.03,282.68c0,0,11.6,36.83,11.6,38.83s0.32,8.88,0.83,13.33c0.94,8.17,8.34,32.24,8.34,32.24"/>
					<polygon class="st16" points="176.44,368.96 175.97,367.12 179.87,366.97 179.93,368.67 					"/>
				</g>
				<g>
					<path class="st6" d="M127.36,369.96c0,0,5.28,3.81,4.81,5.15c-0.27,0.77-8.85-2.41-9.19-3.11c-0.55-1.12,1.81-3.14,1.81-3.14
						L127.36,369.96z"/>
					<path class="st7" d="M128.65,366.2l-1.33,3.87c0,0-0.42,0.55-1.33,0.32c-0.9-0.23-1.22-1.2-1.22-1.2l1.57-4.87"/>
					<g>
						<path class="st6" d="M131.4,266.29c-3.22,10.05-2.62,15.31,0.59,23.27c0.19,9.53,0.29,19.16,0.4,28.8
							c-6.79,16.99-7.86,32.23-7,48.41l3.27,1.21c0,0,19.49-33.97,23.07-47.39c4.11-15.4,6.44-31.87,7.08-47.32"/>
					</g>
					<path class="st8" d="M132.2,268.47c0,0-3.55,10.38,1.1,20.38c0,2.79,1.6,26,0.97,29.58c-0.3,1.72-3.49,9.92-5.62,17.91
						c-2.35,8.83-2.85,29.66-2.85,29.66"/>
					<polygon class="st16" points="124.77,366.76 125.29,364.58 129.48,366.52 128.65,368.4 					"/>
				</g>
			</g>
			<g>
				<path class="st17" d="M185.9,188.63l-2.63-2.24c0,0,0-3.92,0-4.64s-0.98-5.04-1.86-5.04c-0.88,0-1.08-1.08-1.52-0.64
					c-0.44,0.44,0.36,5.32,0,5.68s-0.83-2.32-1.16-1.99c-0.33,0.33-0.36,2.3-0.36,3.3c0,1,0.8,2.86,1.6,3.65
					c0.8,0.8,4.32,4.61,4.32,4.61L185.9,188.63z"/>
				<g>
					<path class="st9" d="M184.59,187.14l-2.19,2.5c0,0,8.67,11.48,11.42,15.32c-2.5-0.88-6.1-3.08-8.18-4.44
						c-4.08-2.67-8.17-4.09-10.99-4.09c-6.01,0-2.86,19.79,4.1,22.69c13.21,1.99,28.03,0.73,30.29-3.92
						C212.4,208.32,193.03,192.1,184.59,187.14z"/>
				</g>
				<path class="st10" d="M193.81,204.96c0,0,1.65,4.62,4.59,6.12"/>
			</g>
			<g>
				<g>
					<path class="st9" d="M144.29,201.67c-15.75,17.69-15.51,48.11-15.51,68.79c0,0,11.56,7.9,29.22,7.9
						c17.73,0,25.02-4.35,25.02-4.35c0.53-20.95-3.21-29.98,0.25-64.63c0,0-5.64-12.93-8.64-12.93c-3.01,0-14.76-1.16-14.76-1.16
						L144.29,201.67z"/>
				</g>
				<path class="st10" d="M182.41,219.58c0,0,0.36-6.05,1.83-7.52"/>
			</g>
			<g>
				<path class="st7" d="M165.08,182c0.59-3.57,3.13-8.67,7.8-8.09c2.93,0.36,5.2,2.39,6.84,4.76c1.41,2.03,0.88,3.98-1.13,9.13
					c-0.64,1.05-2.02,2.93-3.08,3.61c-2.53,1.61-6.21,0.8-8.22-1.33S164.62,184.83,165.08,182z"/>
			</g>
			<g>
				<path class="st6" d="M165.71,181.57c0.67-0.1,0-0.54,0.3,0.07c0.19,0.39,0.25,0.51,0.63,0.63c0.37,0.13,0.38,0.47,0.69,0.7
					c0.49,0.36,0.9-0.13,1.1-0.55c0.38-0.77,0.37-1.71,0.28-2.54c-0.07-0.66-0.29-1.7,0.35-2.16c0.53-0.37,1.69,0.17,2.23,0.33
					c0.84,0.24,1.67,0.51,2.5,0.77c2.01,0.61,4.14,1.15,6.25,0.87c1.85-0.25,3.76-1.21,4.65-2.93c1.06-2.05-1.06-4.74-3.22-4.74
					c-0.57,0-1.1,0.23-1.66,0.34c-0.2,0.04-0.42,0.07-0.62,0.01c-0.47-0.14-0.68-0.67-0.95-1.08c-0.8-1.25-2.17-1.63-3.58-1.47
					c-1.6,0.18-2.97,0.94-4.5,1.36c-0.81,0.22-1.51,0.01-2.31,0.04c-0.83,0.03-1.69,0.57-2.06,1.34c-0.65-0.68-2.11,0.99-2.48,1.44
					c-1.6,1.94-2.1,4.74-2.14,7.2c-0.04,2.15,0.32,5.27,2.67,6.14c1,0.37,1.62,0.56,1.67-0.35c-0.44-0.95-0.54-2.82-0.63-3.61
					c-0.09-0.79,0.14-1.73,0.87-2.04"/>
			</g>
			<path class="st7" d="M173.37,190.53l-0.51,5.39l1.77,0.5c0,0-0.94,2.42-4.03,2.83c-6.29,0.84-10.73-3.99-10.73-3.99l2.1-0.41
				l3.18-10.02"/>
			<g>
				<path class="st7" d="M166.76,181.53c0.03-0.45-0.43-0.82-0.87-0.83c-0.45-0.01-0.86,0.25-1.18,0.57
					c-1.76,1.75,0.45,6.02,2.19,3.81"/>
			</g>
			<g>
				<path class="st6" d="M178.61,187.71c-0.28,0.66-1.4,0.93-2.01,0.99c-2.96,0.33-5.41-1.59-8.24-1.94
					c-0.56-0.07-1.2-0.12-1.62,0.26c-0.4,0.36-0.43,0.96-0.44,1.49c-0.01,0.66-0.02,1.33,0.04,1.98c0.05,0.57,0.16,1.15,0.46,1.64
					c1.28,2.13,5.54,2.49,7.71,2.36c0.87-0.05,1.78-0.22,2.47-0.74c0.97-0.73,1.18-2.02,1.55-3.15
					C178.96,189.23,178.61,187.71,178.61,187.71z"/>
			</g>
			<g>
				<path class="st7" d="M176.51,190.03c-0.09-0.06-0.2-0.11-0.31-0.11c-1.38,0-2.15-0.33-3.22-0.42c-0.18-0.01-0.37-0.03-0.55,0.03
					c-0.38,0.12-0.6,0.51-0.68,0.9c-0.08,0.39,0.12,0.69,0.47,0.86c0.64,0.32,1.36,0.43,2.07,0.45c0.62,0.02,1.43,0.07,1.94-0.35
					C176.51,191.16,176.94,190.34,176.51,190.03z"/>
			</g>
			<g>
				<path class="st11" d="M163.5,268.12c-34.41-1.8-54.45,15.96-68.68,48.31c-18.47,41.98-44.28,45.33-55.9,45.1"/>
				<path class="st12" d="M150.3,270.92c1.27,15.18,13.52,23.39,23.34,22.57l16.11-1.34l-4.06-48.69l-16.11,1.34
					C159.76,245.62,149.03,255.74,150.3,270.92z"/>
				<path class="st13" d="M158.6,270.23c1.24,14.84,11.03,26.13,21.86,25.22l17.77-1.48l-4.48-53.72l-17.77,1.48
					C165.15,242.63,157.36,255.39,158.6,270.23z"/>
				
					<ellipse transform="matrix(0.9965 -0.0831 0.0831 0.9965 -21.5389 17.112)" class="st15" cx="194.73" cy="267.22" rx="19.69" ry="26.95"/>
				<g>
					<g>
						<path class="st12" d="M193.88,276.87c0.18,2.2,1.84,3.87,3.7,3.71c1.86-0.15,3.21-2.07,3.03-4.27s-1.84-3.87-3.7-3.71
							C195.05,272.75,193.7,274.67,193.88,276.87z"/>
					</g>
					<g>
						<path class="st12" d="M192.29,257.83c0.18,2.2,1.84,3.87,3.7,3.71c1.86-0.15,3.21-2.07,3.03-4.27
							c-0.18-2.2-1.84-3.87-3.7-3.71C193.47,253.72,192.11,255.63,192.29,257.83z"/>
					</g>
				</g>
				<g>
					<path class="st18" d="M196.21,260.33c2.02-0.17,25.12-2.1,25.12-2.1c1.53-0.13,2.67-1.49,2.54-3.03l0,0
						c-0.13-1.55-1.48-2.7-3.01-2.57c0,0-23.2,1.94-25.12,2.1C193.83,254.88,194.19,260.5,196.21,260.33z"/>
					<path class="st18" d="M197.8,279.37c2.02-0.17,25.12-2.1,25.12-2.1c1.53-0.13,2.67-1.49,2.54-3.03l0,0
						c-0.13-1.55-1.48-2.7-3.01-2.57c0,0-23.2,1.94-25.12,2.1C195.41,273.92,195.78,279.53,197.8,279.37z"/>
				</g>
			</g>
			<g>
				<g>
					<path class="st7" d="M135.9,224.36c0,0-1.25,12.73,4.44,23.32c4.87,9.05,14.54,20.77,22.35,27.23l1.88-0.46
						c-2.72-10.44-11.3-28.97-11.84-35.91c-0.53-6.95-0.41-15-0.53-18.87"/>
				</g>
				<path class="st9" d="M159.88,195.27c0,0-11.04,0.64-17.39,5.43c-10.98,8.29-8.82,30.57-5.63,41.45
					c3.2,10.89,18.57,27.23,23.54,30.75c0.81,0,3.21-0.2,3.12-2.08c-2.75-8.49-10.58-30.82-10.58-30.82l1.24-30.13"/>
				<g>
					<path class="st7" d="M163.81,272.91c1.19,0.12,2.35,0.7,3.35,1.48c0.92,0.72,2.05,1.92,1.93,2.47
						c-0.12,0.58-1.63-0.53-1.81-0.31c-0.18,0.22,2.58,4.39,2.06,4.7c-0.52,0.31-2.87-3.46-2.87-3.46s2.28,4.03,1.4,4.12
						c-0.74,0.07-2.76-3.74-2.76-3.74s1.71,3.41,1.12,3.54c-0.59,0.13-2.17-3.27-2.17-3.27s1.29,2.9,0.8,2.95
						c-0.25,0.02-1.52-1.42-2.06-3.17c-0.52-1.72-1.14-3.22-0.66-4.56"/>
				</g>
				<path class="st10" d="M156.03,248.88c-1.76-5.07-3.09-8.87-3.09-8.87l2.32-25.29"/>
				<path class="st10" d="M134.33,220.86c-0.06,6.86,0.76,15.31,2.52,21.3c1.54,5.24,5.9,11.75,10.56,17.47"/>
			</g>
		</g>
	</g>
</g>
</svg>
