<svg id="Capa_1" enable-background="new 0 0 497.015 497.015" height="512" viewBox="0 0 497.015 497.015" width="512" xmlns="http://www.w3.org/2000/svg"><g><g><path d="m248.544 497.015h-46.63c-25.697 0-46.603-20.906-46.603-46.603v-77.665l8.872-10h15l7.228 10v77.665c0 8.548 6.955 15.503 15.503 15.503h46.63c8.548 0 15.503-6.955 15.503-15.503v-62.143c0-25.697 20.906-46.603 46.604-46.603s46.603 20.906 46.603 46.603v15.549c0 8.548 6.955 15.503 15.504 15.503h7.783c8.549 0 15.504-6.955 15.504-15.503v-310.165h31.1v310.166c0 25.697-20.906 46.603-46.604 46.603h-7.783c-25.697 0-46.604-20.906-46.604-46.603v-15.549c0-8.548-6.955-15.503-15.503-15.503-8.549 0-15.504 6.955-15.504 15.503v62.143c-.001 25.696-20.906 46.602-46.603 46.602z" fill="#5680a6"/></g><g><path d="m62.162 124.23-6.646 10h-14l-10.454-10v-85.915c0-16.872 13.678-30.55 30.55-30.55h51.612v31.1h-44.062c-3.866 0-7 3.134-7 7z" fill="#c8effe"/></g><g><path d="m81.617 7.768c-16.85 0-30.55 13.7-30.55 30.55v95.91h-10.217l-9.783-10v-85.91c0-16.85 13.7-30.55 30.55-30.55h20z" fill="#99e6fc"/></g><g><path d="m279.579 124.23 7.938 10h15l8.162-10v-85.915c0-16.872-13.678-30.55-30.55-30.55h-51.612v31.1h44.063c3.866 0 7 3.134 7 7v78.365z" fill="#c8effe"/></g><path d="m279.56 124.23v76.478c0 59.981-48.083 109.548-108.063 109.893-60.227.347-109.335-48.548-109.335-108.697v-77.674h-31.1v77.674c0 67.679 48.345 124.271 112.313 137.075 6.972 1.396 11.955 7.573 11.955 14.684v19.084h31.062v-19.084c0-7.11 4.983-13.288 11.955-14.684 63.967-12.805 112.312-69.396 112.312-137.075v-77.674z" fill="#f2fbff"/><path d="m175.327 353.668v19.08h-20v-19.08c0-7.11-4.98-13.29-11.95-14.69-63.97-12.8-112.31-69.39-112.31-137.07v-77.68h20v77.68c0 67.68 48.34 124.27 112.31 137.07 6.97 1.4 11.95 7.58 11.95 14.69z" fill="#dff6fd"/><g><path d="m169.183 229.332c-3.12 0-5.922-1.934-7.021-4.867l-22.228-59.29-8.615 23.756c-1.076 2.967-3.895 4.943-7.051 4.943h-31.063c-4.143 0-7.5-3.358-7.5-7.5s3.357-7.5 7.5-7.5h25.805l13.757-37.933c1.071-2.953 3.869-4.926 7.011-4.943h.04c3.125 0 5.925 1.938 7.022 4.867l21.772 58.078 23.092-72.391c.99-3.104 3.872-5.214 7.131-5.221h.015c3.253 0 6.135 2.097 7.137 5.193l16.925 52.349h25.604c4.143 0 7.5 3.358 7.5 7.5s-3.357 7.5-7.5 7.5h-31.062c-3.253 0-6.136-2.097-7.137-5.193l-11.42-35.321-22.568 70.751c-.972 3.044-3.765 5.139-6.958 5.218-.063.003-.126.004-.188.004z" fill="#5680a6"/></g><circle cx="411.593" cy="54.844" fill="#c8effe" r="54.359"/><path d="m421.597 108.278c-3.24.6-6.58.92-10 .92-30.02 0-54.36-24.33-54.36-54.35 0-30.03 24.34-54.36 54.36-54.36 3.42 0 6.76.32 10 .92-25.25 4.69-44.36 26.83-44.36 53.44 0 26.6 19.11 48.74 44.36 53.43z" fill="#99e6fc"/><circle cx="411.593" cy="54.844" fill="#f2fbff" r="23.781"/><g fill="#5680a6"><circle cx="116.521" cy="23.296" r="23.296"/><circle cx="225.22" cy="23.296" r="23.296"/></g></g></svg>