<svg id="eq2o11aqk49e1" xmlns="http://www.w3.org/2000/svg" xmlns:xlink="http://www.w3.org/1999/xlink" viewBox="0 0 512 512" shape-rendering="geometricPrecision" text-rendering="geometricPrecision"><style><![CDATA[#eq2o11aqk49e3 {animation: eq2o11aqk49e3_c_o 5000ms linear infinite normal forwards}@keyframes eq2o11aqk49e3_c_o { 0% {opacity: 1;animation-timing-function: cubic-bezier(0.550000,0.085000,0.680000,0.530000)} 20% {opacity: 0.820000;animation-timing-function: cubic-bezier(0.550000,0.085000,0.680000,0.530000)} 80% {opacity: 0.820000;animation-timing-function: cubic-bezier(0.320000,0.470000,0.450000,0.915000)} 100% {opacity: 1} }#eq2o11aqk49e4_tr {animation: eq2o11aqk49e4_tr__tr 5000ms linear infinite normal forwards}@keyframes eq2o11aqk49e4_tr__tr { 0% {transform: translate(255.999985px,256px) rotate(0deg);animation-timing-function: cubic-bezier(0.470000,0,0.745000,0.715000)} 20% {transform: translate(255.999985px,256px) rotate(359deg);animation-timing-function: cubic-bezier(0.470000,0,0.745000,0.715000)} 80% {transform: translate(255.999985px,256px) rotate(359deg);animation-timing-function: cubic-bezier(0.470000,0,0.745000,0.715000)} 100% {transform: translate(255.999985px,256px) rotate(0deg)} }#eq2o11aqk49e4_ts {animation: eq2o11aqk49e4_ts__ts 5000ms linear infinite normal forwards}@keyframes eq2o11aqk49e4_ts__ts { 0% {transform: scale(1,1);animation-timing-function: cubic-bezier(0.420000,0,1,1)} 20% {transform: scale(1.200000,1.200000);animation-timing-function: cubic-bezier(0.420000,0,1,1)} 80% {transform: scale(1.200000,1.200000);animation-timing-function: cubic-bezier(0.420000,0,1,1)} 100% {transform: scale(1,1)} }]]></style><g id="eq2o11aqk49e2"><circle id="eq2o11aqk49e3" r="241.982885" transform="matrix(1 0 0 1 256.00000000189834 255.99950000189753)" fill="rgb(111,163,202)" stroke="none" stroke-width="1"/><g id="eq2o11aqk49e4_tr" transform="translate(255.999985,256) rotate(0)"><g id="eq2o11aqk49e4_ts" transform="scale(1,1)"><g id="eq2o11aqk49e4" transform="translate(-255.999985,-256)"><path id="eq2o11aqk49e5" d="M352.504000,298.891000L352.504000,342.496000C352.504000,383.879000,318.828000,417.555000,277.445000,417.555000C236.062000,417.555000,202.386000,383.879000,202.386000,342.496000L202.386000,298.891000L191.663000,298.891000L180.940000,298.891000L180.940000,342.496000C180.940000,358.135000,185.032000,372.702000,191.663000,385.779000C207.595000,417.201000,239.869000,439,277.445000,439C330.660000,439,373.949000,395.711000,373.949000,342.496000L373.949000,298.891000Z" fill="rgb(84,116,127)" stroke="none" stroke-width="1"/><path id="eq2o11aqk49e6" d="M277.445000,439C330.660000,439,373.949000,395.711000,373.949000,342.496000L373.949000,298.891000L352.504000,298.891000L352.504000,342.496000C352.504000,383.879000,318.828000,417.555000,277.445000,417.555000C236.062000,417.555000,202.386000,383.879000,202.386000,342.496000L202.386000,298.891000L191.663000,298.891000L191.663000,385.780000C207.595000,417.201000,239.869000,439,277.445000,439Z" fill="rgb(69,94,114)" stroke="none" stroke-width="1"/><path id="eq2o11aqk49e7" d="M363.227000,309.613000C333.666000,309.613000,309.614000,285.560000,309.614000,256C309.614000,226.440000,333.667000,202.387000,363.227000,202.387000C392.787000,202.387000,416.840000,226.439000,416.840000,256C416.840000,285.561000,392.787000,309.613000,363.227000,309.613000Z" fill="rgb(233,242,242)" stroke="none" stroke-width="1"/><circle id="eq2o11aqk49e8" r="32.168000" transform="matrix(1 0 0 1 363.22699999999998 256)" fill="rgb(213,229,229)" stroke="none" stroke-width="1"/><path id="eq2o11aqk49e9" d="M352.504000,245.277000L373.949000,245.277000L373.949000,266.722000L352.504000,266.722000Z" fill="rgb(233,242,242)" stroke="none" stroke-width="1"/><path id="eq2o11aqk49e10" d="M255.592000,111.796000L243.320000,129.388000C258.849000,140.215000,266.723000,158.030000,266.723000,180.941000C266.723000,229.203000,232.084000,288.168000,191.664000,288.168000C151.244000,288.168000,116.605000,229.204000,116.605000,180.941000C116.605000,158.030000,124.479000,140.215000,140.008000,129.388000L127.736000,111.796000C106.427000,126.655000,95.160000,151.035000,95.160000,180.941000C95.160000,240.439000,137.318000,309.613000,191.664000,309.613000C246.010000,309.613000,288.168000,240.439000,288.168000,180.941000C288.168000,151.035000,276.901000,126.655000,255.592000,111.796000Z" fill="rgb(148,229,207)" stroke="none" stroke-width="1"/><path id="eq2o11aqk49e11" d="M288.168000,180.941000C288.168000,151.035000,276.901000,126.655000,255.592000,111.796000L243.320000,129.388000C258.849000,140.215000,266.723000,158.030000,266.723000,180.941000C266.723000,229.203000,232.084000,288.168000,191.664000,288.168000L191.664000,309.613000C246.010000,309.613000,288.168000,240.440000,288.168000,180.941000Z" fill="rgb(124,203,191)" stroke="none" stroke-width="1"/><path id="eq2o11aqk49e12" d="M148.773000,137.336000C131.035000,137.336000,116.605000,122.906000,116.605000,105.168000C116.605000,87.429000,131.035000,73,148.773000,73C166.511000,73,180.941000,87.429000,180.941000,105.168000C180.941000,122.906000,166.512000,137.336000,148.773000,137.336000Z" fill="rgb(84,116,127)" stroke="none" stroke-width="1"/><path id="eq2o11aqk49e13" d="M234.555000,137.336000C216.816000,137.336000,202.387000,122.906000,202.387000,105.168000C202.387000,87.429000,216.816000,73,234.555000,73C252.293000,73,266.723000,87.429000,266.723000,105.168000C266.723000,122.906000,252.293000,137.336000,234.555000,137.336000Z" fill="rgb(69,94,114)" stroke="none" stroke-width="1"/></g></g></g></g></svg>