<svg id="e100rbu1xnf61" xmlns="http://www.w3.org/2000/svg" xmlns:xlink="http://www.w3.org/1999/xlink" viewBox="0 0 512 512" shape-rendering="geometricPrecision" text-rendering="geometricPrecision"><style><![CDATA[#e100rbu1xnf62_to {animation: e100rbu1xnf62_to__to 3000ms linear infinite normal forwards}@keyframes e100rbu1xnf62_to__to { 0% {transform: translate(362.520000px,680px);animation-timing-function: cubic-bezier(0.895000,0.030000,0.685000,0.220000)} 20% {transform: translate(362.519806px,180.273964px);animation-timing-function: cubic-bezier(0.895000,0.030000,0.685000,0.220000)} 40% {transform: translate(362.519806px,180.273964px);animation-timing-function: cubic-bezier(0.895000,0.030000,0.685000,0.220000)} 73.333333% {transform: translate(362.519806px,180.273964px);animation-timing-function: cubic-bezier(0.895000,0.030000,0.685000,0.220000)} 100% {transform: translate(362.519806px,-136.311462px)} }#e100rbu1xnf62 {animation: e100rbu1xnf62_c_o 3000ms linear infinite normal forwards}@keyframes e100rbu1xnf62_c_o { 0% {opacity: 0;animation-timing-function: cubic-bezier(0.895000,0.030000,0.685000,0.220000)} 20% {opacity: 1;animation-timing-function: cubic-bezier(0.895000,0.030000,0.685000,0.220000)} 40% {opacity: 1;animation-timing-function: cubic-bezier(0.895000,0.030000,0.685000,0.220000)} 73.333333% {opacity: 1;animation-timing-function: cubic-bezier(0.895000,0.030000,0.685000,0.220000)} 100% {opacity: 0} }#e100rbu1xnf68_to {animation: e100rbu1xnf68_to__to 3000ms linear infinite normal forwards}@keyframes e100rbu1xnf68_to__to { 0% {transform: translate(209.648161px,720px)} 20% {transform: translate(209.648161px,720px);animation-timing-function: cubic-bezier(0.390000,0.575000,0.565000,1)} 40% {transform: translate(209.648161px,324.793213px);animation-timing-function: cubic-bezier(0.390000,0.575000,0.565000,1)} 73.333333% {transform: translate(209.648161px,324.793213px);animation-timing-function: cubic-bezier(0.390000,0.575000,0.565000,1)} 100% {transform: translate(209.648161px,-185.206787px)} }#e100rbu1xnf68 {animation: e100rbu1xnf68_c_o 3000ms linear infinite normal forwards}@keyframes e100rbu1xnf68_c_o { 0% {opacity: 0} 20% {opacity: 0;animation-timing-function: cubic-bezier(0.390000,0.575000,0.565000,1)} 40% {opacity: 1;animation-timing-function: cubic-bezier(0.390000,0.575000,0.565000,1)} 73.333333% {opacity: 1;animation-timing-function: cubic-bezier(0.390000,0.575000,0.565000,1)} 100% {opacity: 0} }]]></style><g id="e100rbu1xnf62_to" transform="translate(362.520000,680)"><g id="e100rbu1xnf62" transform="translate(-362.519806,-180.273964)" opacity="0"><path id="e100rbu1xnf63" d="M252.300000,237.300000C283.700000,291.600000,349,314.100000,406,293.400000C407.800000,292.800000,409.700000,293,411.300000,294L441,313.600000C442.600000,314.600000,444.600000,313.400000,444.500000,311.600000L442.500000,278.100000C442.300000,275,443.600000,271.900000,445.900000,269.800000C491,230.800000,503.700000,164.200000,473.100000,110.500000C438.600000,50,359.400000,28.500000,299,63.200000C238,98.300000,217.100000,176.300000,252.300000,237.300000Z" fill="rgb(96,167,216)" stroke="none" stroke-width="1"/><path id="e100rbu1xnf64" d="M274.800000,266C309.400000,298.900000,360.400000,310,405.900000,293.400000C407.700000,292.800000,409.600000,293,411.200000,294L440.900000,313.600000C442.500000,314.600000,444.500000,313.400000,444.400000,311.600000L442.400000,278.100000C442.200000,275,443.500000,271.900000,445.800000,269.800000C490.900000,230.800000,503.600000,164.200000,473,110.500000C458.900000,85.800000,437.400000,67.600000,412.700000,57C427.100000,70.500000,438.500000,87.500000,445.300000,107.200000C468.300000,173.800000,433,246.400000,366.400000,269.300000C335.400000,280.100000,302.900000,278,274.800000,266Z" fill="rgb(79,149,183)" stroke="none" stroke-width="1"/><g id="e100rbu1xnf65"><circle id="e100rbu1xnf66" r="13.400000" transform="matrix(1 0 0 1 362.60000000000002 220.59999999999999)" fill="rgb(182,226,231)" stroke="none" stroke-width="1"/><path id="e100rbu1xnf67" d="M362.600000,119.900000C343.400000,119.900000,327.800000,135.500000,327.800000,154.700000L327.800000,158L354.500000,158L354.500000,154.700000C354.500000,150.300000,358.100000,146.700000,362.500000,146.700000C366.900000,146.700000,370.500000,150.300000,370.500000,154.700000C370.500000,157.100000,369.500000,159.300000,367.700000,160.800000L349.200000,176.600000L349.200000,200.600000L375.900000,200.600000L375.900000,189L385,181.200000C392.800000,174.600000,397.300000,164.900000,397.300000,154.700000C397.300000,135.500000,381.700000,119.900000,362.600000,119.900000Z" fill="rgb(182,226,231)" stroke="none" stroke-width="1"/></g></g></g><g id="e100rbu1xnf68_to" transform="translate(209.648161,720)"><g id="e100rbu1xnf68" transform="translate(-209.648161,-278.970940)" opacity="0"><path id="e100rbu1xnf69" d="M271.500000,125.900000C192.500000,80.500000,89,108.700000,43.900000,187.800000C3.900000,257.900000,20.500000,345,79.400000,396C82.500000,398.700000,84.200000,402.700000,83.900000,406.800000L81.300000,450.600000C81.200000,453,83.900000,454.600000,85.900000,453.300000L124.800000,427.600000C126.900000,426.200000,129.400000,425.900000,131.700000,426.800000C206.200000,453.900000,291.600000,424.500000,332.600000,353.500000C378.700000,273.700000,351.300000,171.800000,271.500000,125.900000Z" fill="rgb(251,100,103)" stroke="none" stroke-width="1"/><path id="e100rbu1xnf610" d="M183.300000,395.400000C96.200000,365.500000,50,270.600000,80.100000,183.500000C89,157.800000,103.900000,135.500000,122.700000,117.800000C90.400000,131.600000,62.300000,155.400000,43.800000,187.700000C3.900000,257.900000,20.500000,345,79.400000,396C82.500000,398.700000,84.200000,402.700000,83.900000,406.800000L81.300000,450.600000C81.200000,453,83.900000,454.600000,85.900000,453.300000L124.800000,427.600000C126.900000,426.200000,129.400000,425.900000,131.700000,426.800000C191.300000,448.500000,257.900000,434,303.200000,391C266.500000,406.700000,224,409.400000,183.300000,395.400000Z" fill="rgb(239,82,90)" stroke="none" stroke-width="1"/><g id="e100rbu1xnf611"><g id="e100rbu1xnf612"><path id="e100rbu1xnf613" d="M248.600000,192.700000C232.100000,176.200000,205.300000,176.200000,188.800000,192.700000L153.900000,227.600000L193.500000,267.200000C201.600000,260.400000,212,256.200000,223.400000,256.200000C229.900000,256.200000,236.200000,257.600000,241.800000,260L248.600000,252.600000C265.100000,236,265.100000,209.200000,248.600000,192.700000Z" fill="rgb(250,189,181)" stroke="none" stroke-width="1"/></g></g><g id="e100rbu1xnf614"><g id="e100rbu1xnf615"><path id="e100rbu1xnf616" d="M186.900000,273.800000L147.300000,234.200000L113.200000,268.400000C96.700000,284.900000,96.700000,311.700000,113.200000,328.200000C129.700000,344.700000,156.800000,345,173.300000,328.500000L180.200000,321.500000C177.800000,315.800000,176.400000,309.600000,176.400000,303.100000C176.400000,292,180.500000,281.900000,186.900000,273.800000Z" fill="rgb(250,189,181)" stroke="none" stroke-width="1"/></g></g><g id="e100rbu1xnf617"><g id="e100rbu1xnf618"><path id="e100rbu1xnf619" d="M185.800000,303.100000C185.800000,322.300000,200.200000,337.900000,218.700000,340.200000L218.700000,266C200.200000,268.300000,185.800000,283.900000,185.800000,303.100000Z" fill="rgb(250,189,181)" stroke="none" stroke-width="1"/></g></g><g id="e100rbu1xnf620"><g id="e100rbu1xnf621"><path id="e100rbu1xnf622" d="M228.100000,266L228.100000,340.200000C246.600000,337.900000,261,322.200000,261,303.100000C261,283.900000,246.600000,268.300000,228.100000,266Z" fill="rgb(250,189,181)" stroke="none" stroke-width="1"/></g></g></g></g></svg>