<svg  height='300px' width='300px'  fill="#1890ff" xmlns="http://www.w3.org/2000/svg" viewBox="0 0 64 64" x="0px" y="0px"><g><path d="M29,37v7H19V37a5,5,0,0,1,10,0Z"></path><path d="M60,32A12.01,12.01,0,0,1,48,44H43V42a7.008,7.008,0,0,0,7-7V27a1,1,0,0,0-1-1H46v2h2v7a5,5,0,0,1-5,5H41a5,5,0,0,1-5-5V28h2V26H35a1,1,0,0,0-1,1v8a7.008,7.008,0,0,0,7,7v2H31V37a7,7,0,0,0-14,0v7H13a9,9,0,0,1-2.6-17.62.987.987,0,0,0,.71-.82A11.007,11.007,0,0,1,22,16c.15,0,.3.01.45.02l.21.01a1.017,1.017,0,0,0,.95-.53,13.985,13.985,0,0,1,26.15,3.98.994.994,0,0,0,.77.79A12.053,12.053,0,0,1,60,32Z"></path><path d="M22,54a4,4,0,1,1-5-3.86V44h2v6.14A4,4,0,0,1,22,54Z"></path><path d="M43,44v5a7,7,0,0,1-14,0V44h2v5a5,5,0,0,0,10,0V44Z"></path></g></svg>