<?xml version="1.0" encoding="utf-8"?>
<!-- Generator: Adobe Illustrator 24.3.0, SVG Export Plug-In . SVG Version: 6.00 Build 0)  -->
<svg version="1.1" xmlns="http://www.w3.org/2000/svg" xmlns:xlink="http://www.w3.org/1999/xlink" x="0px" y="0px"
	 viewBox="0 0 226.1 364.3" style="enable-background:new 0 0 226.1 364.3;" xml:space="preserve">
<style type="text/css">
	.st0{display:none;}
	.st1{display:inline;fill:#F0F0F0;}
	.st2{fill:#E8505B;}
	.st3{fill:#263238;}
	.st4{fill:#455A64;}
	.st5{fill:#FFFFFF;}
	.st6{fill:#E8E8E3;}
	.st7{font-family:'Montserrat-Regular';}
	.st8{font-size:8.299px;}
	.st9{opacity:0.1;}
	.st10{fill:#E0E0E0;}
	.st11{opacity:0.2;fill:#FFFFFF;}
	.st12{opacity:0.2;}
</style>
<g id="Background_Complete">
</g>
<g id="Background_Simple" class="st0">
	<path class="st1" d="M177.8,103.8c-36.6-32-86.2,0-134.3,67.3c-48.2,67.4-71.1,39-112,68.7c-41,29.7-51.9,151.3,92.4,139.4
		C168,367.5,273.5,187.4,177.8,103.8z"/>
</g>
<g id="Floor">
</g>
<g id="Plant">
</g>
<g id="Padlock">
	<g>
		<g>
			<g>
				<path class="st2" d="M190,32.1l-5.2,1.8l-2.2-6.7c-4.1-12.4-17-19.1-28.9-14.8c-11.9,4.2-18.2,17.8-14.2,30.2l2.2,6.7l-5.2,1.8
					c-4,1.4-6.2,6.1-4.8,10.3l14.3,43.8c1.4,4.3,5.8,6.5,9.9,5.1l53.4-19.1c4.1-1.5,6.3-6.1,4.9-10.4l-14.3-43.8
					C198.5,32.9,194,30.7,190,32.1z M149.3,39.2c-2.2-6.8,1.2-14.2,7.8-16.6c6.5-2.3,13.6,1.3,15.8,8.1l2.2,6.7l-23.6,8.4
					L149.3,39.2z M179.3,78l3.7,11.2c0.2,0.5-0.1,1-0.6,1.1l-5.1,1.8c-0.4,0.1-0.9-0.1-1-0.5l-3.7-11.2c-4-0.2-7.6-2.8-9-7
					c-1.8-5.4,1-11.3,6.2-13.2c5.2-1.9,10.8,1,12.6,6.5C183.7,70.9,182.3,75.3,179.3,78z"/>
			</g>
		</g>
		<g>
			<path class="st3" d="M184.6,33.8c0,0.1-9.5,3.7-21.4,8c-11.9,4.3-21.6,7.7-21.6,7.5c0-0.1,9.5-3.7,21.4-8
				C174.9,37.1,184.5,33.7,184.6,33.8z"/>
		</g>
		<g>
			<g>
				<path class="st3" d="M195.9,35.7c0,0,0,0.1,0.1,0.3c0.1,0.2,0.2,0.5,0.3,0.8c0.3,0.7,0.6,1.7,1.1,3c0.9,2.7,2.2,6.5,3.8,11.2
					c1.6,4.7,3.5,10.4,5.6,16.6c1,3.1,2.2,6.4,3.3,9.8c0.5,1.7,0.9,3.6,0.8,5.5c-0.1,0.9-0.3,1.9-0.8,2.8c-0.5,0.9-1.1,1.6-1.9,2.2
					c-1.5,1.2-3.3,1.9-5.1,2.6c-1.7,0.6-3.5,1.2-5.2,1.9c-3.4,1.2-6.6,2.4-9.7,3.5c-6.2,2.2-11.8,4.2-16.5,5.9
					c-4.7,1.6-8.5,3-11.1,3.9c-1.3,0.4-2.3,0.8-3,1c-0.3,0.1-0.6,0.2-0.8,0.3c-0.2,0.1-0.3,0.1-0.3,0.1c0,0,0.1,0,0.3-0.1
					c0.2-0.1,0.5-0.2,0.8-0.3c0.7-0.3,1.7-0.7,3-1.1c2.7-1,6.4-2.4,11.1-4.1c4.7-1.7,10.3-3.7,16.5-6c3.1-1.1,6.4-2.3,9.7-3.5
					c1.7-0.6,3.4-1.2,5.1-1.9c1.7-0.6,3.5-1.3,4.9-2.5c0.7-0.6,1.3-1.3,1.8-2.1c0.4-0.8,0.7-1.7,0.8-2.6c0.2-1.8-0.2-3.6-0.7-5.3
					c-1.1-3.4-2.2-6.7-3.2-9.8c-2.1-6.3-3.9-11.9-5.5-16.6c-1.5-4.7-2.8-8.5-3.7-11.2c-0.4-1.3-0.7-2.3-1-3.1
					c-0.1-0.3-0.2-0.6-0.2-0.8C195.9,35.8,195.9,35.7,195.9,35.7z"/>
			</g>
		</g>
		<g>
			<g>
				<path class="st3" d="M167.8,21.9c0,0-0.5-0.3-1.5-0.7c-1-0.4-2.5-0.8-4.4-0.9c-1.9-0.1-4.2,0.2-6.4,1.2c-2.3,1-4.5,2.7-6.1,5.1
					c-1.6,2.4-2.3,5.1-2.3,7.6c0,2.5,0.5,4.7,1,6.5c0.5,1.8,1.1,3.3,1.4,4.3c0.4,1,0.6,1.6,0.5,1.6c0,0-0.3-0.5-0.7-1.5
					c-0.4-1-1-2.4-1.6-4.2c-0.6-1.8-1.1-4.1-1.1-6.7c0-2.6,0.7-5.4,2.4-7.9c1.7-2.5,4-4.3,6.4-5.3c2.4-1,4.7-1.3,6.6-1.1
					c1.9,0.1,3.4,0.6,4.4,1.1c0.5,0.2,0.9,0.4,1.1,0.6C167.7,21.8,167.8,21.9,167.8,21.9z"/>
			</g>
		</g>
		<g>
			<g>
				<path class="st3" d="M168.2,61c0,0,0.2-0.1,0.5-0.3c0.3-0.2,0.9-0.4,1.5-0.6c0.7-0.2,1.6-0.4,2.6-0.4c1-0.1,2.3,0.1,3.5,0.5
					c2.6,0.9,4.9,3.5,6.1,7c0.6,1.7,0.6,3.8,0,5.7c-0.6,2-1.7,3.8-3.3,5.4l0.1-0.3c1.3,3.6,2.8,7.6,4.3,11.7l0.1,0.3l-0.3,0.1
					c-0.7,0.2-1.5,0.5-2.3,0.8c-1.7,0.6-3.3,1.1-5,1.7l-0.2,0.1l-0.1-0.2c-1.4-4.1-2.9-8.1-4-11.8l0.2,0.2c-2-0.1-3.9-1-5.4-2.1
					c-1.5-1.1-2.6-2.5-3.4-4c-0.7-1.5-1.1-3.1-1.1-4.5c0-1.4,0.4-2.8,0.8-3.9c0.9-2.2,2.3-3.6,3.4-4.4C167.5,61.2,168.2,61,168.2,61
					c0,0-0.6,0.3-1.6,1.1c-1,0.8-2.3,2.2-3.2,4.4c-0.9,2.1-1.2,5.2,0.3,8.1c0.7,1.4,1.8,2.8,3.3,3.8c1.4,1.1,3.2,1.9,5.1,2l0.2,0
					l0,0.2c1.1,3.7,2.6,7.6,4,11.8l-0.3-0.2c1.6-0.5,3.3-1.1,5-1.7c0.8-0.3,1.6-0.5,2.3-0.8l-0.2,0.3c-1.5-4.1-2.9-8.1-4.3-11.7
					l-0.1-0.1l0.1-0.1c1.5-1.5,2.6-3.3,3.2-5.2c0.5-1.9,0.5-3.8,0-5.5c-1.1-3.4-3.3-5.9-5.8-6.8c-1.2-0.5-2.4-0.6-3.4-0.6
					c-1,0-1.9,0.2-2.6,0.4C168.9,60.7,168.2,61.1,168.2,61z"/>
			</g>
		</g>
	</g>
</g>
<g id="Device">
	<g>
		<g>
			<g>
				<path class="st4" d="M137.3,349.8l-99.9-0.5c-12-0.1-21.7-9.8-21.7-21.8L16.8,77c0.1-12,9.8-21.7,21.9-21.7l99.9,0.5
					c12,0.1,21.7,9.8,21.7,21.8l-1.1,250.4C159.1,340.1,149.3,349.8,137.3,349.8z"/>
			</g>
			<g>
				<path class="st5" d="M138.4,64.5l-19.4-0.1c-2.6,0-4.7,2.2-4.7,4.9l0,3.5c0,2.7-2.1,4.9-4.7,4.9l-37.7-0.2
					c-2.6,0-4.7-2.2-4.7-4.9l0-3.5c0-2.7-2.1-4.9-4.7-4.9l-6.8,0L38.7,64c-8.4,0-15.3,6.8-15.3,15.2l-1,244.4
					c0,8.4,6.8,15.3,15.2,15.3l99.7,0.5c8.4,0,15.3-6.8,15.3-15.2l1-244.4C153.6,71.4,146.8,64.5,138.4,64.5z"/>
			</g>
			<g>
				<g>
					<g>
						<g>
							<path class="st2" d="M125,306.8l-74.1-0.3c-0.8,0-1.4-0.8-1.4-1.9l0.1-19.4c0-1,0.6-1.9,1.4-1.9l74.1,0.3
								c0.8,0,1.4,0.8,1.4,1.9l-0.1,19.4C126.4,305.9,125.8,306.8,125,306.8z"/>
						</g>
						<g>
							<text transform="matrix(0.9566 4.419677e-03 -4.230001e-03 1 71.0076 297.3837)" class="st6 st7 st8">SING UP</text>
						</g>
					</g>
				</g>
			</g>
		</g>
		<g>
			<g>
				
					<rect x="39.9" y="136.2" transform="matrix(1 4.615699e-03 -4.615699e-03 1 0.6403 -0.2422)" class="st2" width="25.7" height="4.7"/>
				
					<rect x="39.9" y="136.2" transform="matrix(1 4.615699e-03 -4.615699e-03 1 0.6403 -0.2422)" class="st9" width="25.7" height="4.7"/>
			</g>
			<g>
				<g>
					<path class="st10" d="M141.1,165.3c0,0,0.2,0,0.6-0.1c0.4-0.1,0.9-0.6,1-1.3c0-1.6,0-3.9,0-6.9c0-1.5,0-3.2,0-5
						c0-0.5,0-0.9,0-1.4c0-0.5,0-0.9-0.3-1.3c-0.3-0.4-0.7-0.6-1.2-0.6c-0.5,0-1,0-1.6,0c-4.3,0-9.1,0-14.4,0
						c-21.4-0.1-51-0.2-83.6-0.3c-0.4,0-0.9,0.2-1.1,0.6c-0.3,0.4-0.3,0.8-0.3,1.3c0,1,0,2,0,3c0,2,0,4,0,6c0,1,0,2,0,3
						c0,0.5,0,1,0,1.4c0.1,0.4,0.4,0.7,0.8,0.9c0.2,0.1,0.4,0.1,0.6,0.1l0.7,0l1.5,0c1,0,1.9,0,2.9,0c7.7,0,15.1,0.1,22.2,0.1
						c14.1,0.1,26.9,0.2,37.6,0.2c10.7,0.1,19.3,0.2,25.3,0.2c3,0,5.3,0.1,6.9,0.1c0.8,0,1.4,0,1.8,0
						C140.9,165.2,141.1,165.3,141.1,165.3s-0.2,0-0.6,0c-0.4,0-1,0-1.8,0c-1.6,0-3.9,0-6.9,0c-6,0-14.7,0-25.4,0
						c-10.7,0-23.5-0.1-37.6-0.1c-7.1,0-14.5-0.1-22.2-0.1c-1,0-1.9,0-2.9,0l-1.5,0l-0.7,0c-0.3,0-0.6,0-0.8-0.1
						c-0.5-0.2-0.9-0.7-1.1-1.2c-0.1-0.3-0.1-0.6-0.1-0.8l0-0.7c0-1,0-2,0-3c0-2,0-4,0-6c0-1,0-2,0-3c0-0.3,0-0.5,0-0.8
						c0-0.3,0.2-0.6,0.3-0.8c0.3-0.5,0.9-0.8,1.5-0.8c32.7,0.2,62.2,0.3,83.6,0.5c5.3,0,10.2,0.1,14.4,0.1c0.5,0,1.1,0,1.6,0
						c0.6,0,1.1,0.3,1.4,0.7c0.3,0.4,0.3,1,0.3,1.5c0,0.5,0,0.9,0,1.4c0,1.8,0,3.5,0,5c0,3-0.1,5.3-0.1,6.9
						c-0.1,0.8-0.7,1.3-1.1,1.4C141.3,165.3,141.1,165.3,141.1,165.3z"/>
				</g>
			</g>
			<g>
				
					<rect x="46.8" y="154.4" transform="matrix(1 4.619129e-03 -4.619129e-03 1 0.7244 -0.3233)" class="st2" width="47" height="4.4"/>
				
					<rect x="46.8" y="154.4" transform="matrix(1 4.619129e-03 -4.619129e-03 1 0.7244 -0.3233)" class="st11" width="47" height="4.4"/>
			</g>
			<g>
				
					<rect x="39.7" y="179.3" transform="matrix(1 4.615683e-03 -4.615683e-03 1 0.8391 -0.2409)" class="st2" width="25.7" height="4.7"/>
				
					<rect x="39.7" y="179.3" transform="matrix(1 4.615683e-03 -4.615683e-03 1 0.8391 -0.2409)" class="st9" width="25.7" height="4.7"/>
			</g>
			<g>
				<g>
					<path class="st10" d="M140.4,208.3c0,0,0.2,0,0.6-0.1c0.4-0.1,0.9-0.4,1.3-1.1c0.2-0.4,0.2-0.8,0.2-1.3c0-0.5,0-1,0-1.6
						c0-1.2,0-2.5,0-4c0-1.5,0-3.2,0-5c0-0.5,0-0.9,0-1.4c0-0.5,0-0.9-0.3-1.3c-0.2-0.4-0.6-0.7-1.1-0.8c-0.4-0.1-1-0.1-1.5-0.1
						c-4.2,0-9.1,0-14.4,0c-21.3-0.1-50.8-0.2-83.3-0.3c-0.9,0-1.7,0.7-1.8,1.6c0,1,0,2,0,3c0,2,0,4,0,6c0,1,0,2,0,3
						c0,0.5-0.1,1,0.1,1.4c0.1,0.4,0.4,0.8,0.7,1c0.4,0.2,0.8,0.3,1.2,0.3l1.5,0c1,0,1.9,0,2.9,0c7.7,0,15.1,0.1,22.1,0.1
						c14.1,0.1,26.8,0.2,37.5,0.2c10.7,0.1,19.3,0.2,25.3,0.2c3,0,5.3,0.1,6.9,0.1c0.8,0,1.4,0,1.8,0
						C140.2,208.3,140.4,208.3,140.4,208.3s-0.2,0-0.6,0c-0.4,0-1,0-1.8,0c-1.6,0-3.9,0-6.9,0c-6,0-14.6,0-25.3,0
						c-10.7,0-23.4-0.1-37.5-0.1c-7.1,0-14.5-0.1-22.1-0.1c-1,0-1.9,0-2.9,0l-1.5,0c-0.5,0-1.1-0.1-1.5-0.4
						c-0.5-0.3-0.8-0.8-0.9-1.3c-0.1-0.6-0.1-1-0.1-1.5c0-1,0-2,0-3c0-2,0-4,0-6c0-1,0-2,0-3.1c0.1-1.2,1.2-2.1,2.3-2.1
						c32.5,0.2,62,0.3,83.3,0.5c5.3,0,10.2,0.1,14.4,0.1c0.5,0,1.1-0.1,1.6,0.1c0.5,0.2,1,0.5,1.2,1c0.3,0.4,0.3,1,0.3,1.5
						c0,0.5,0,0.9,0,1.4c0,1.8,0,3.5,0,5c0,1.5,0,2.8,0,4c0,0.6,0,1.1,0,1.6c0,0.5,0,0.9-0.2,1.3c-0.4,0.7-1,1-1.3,1.1
						C140.6,208.4,140.4,208.3,140.4,208.3z"/>
				</g>
			</g>
			<g>
				
					<rect x="39.6" y="224.2" transform="matrix(1 4.596258e-03 -4.596258e-03 1 1.042 -0.2385)" class="st2" width="25.7" height="4.7"/>
				
					<rect x="39.6" y="224.2" transform="matrix(1 4.596258e-03 -4.596258e-03 1 1.042 -0.2385)" class="st9" width="25.7" height="4.7"/>
			</g>
			<g>
				<g>
					<path class="st10" d="M140.2,253.2c0,0,0.2,0,0.6-0.1c0.4-0.1,0.9-0.4,1.3-1.1c0.2-0.4,0.2-0.8,0.2-1.3c0-0.5,0-1,0-1.6
						c0-1.2,0-2.5,0-4c0-1.5,0-3.2,0-5c0-0.5,0-0.9,0-1.4c0-0.5,0-0.9-0.3-1.3c-0.2-0.4-0.6-0.7-1.1-0.8c-0.4-0.1-1-0.1-1.5-0.1
						c-4.2,0-9.1,0-14.4,0c-21.3-0.1-50.8-0.2-83.3-0.3c-0.9,0-1.7,0.7-1.8,1.6c0,1,0,2,0,3c0,2,0,4,0,6c0,1,0,2,0,3
						c0,0.5-0.1,1,0.1,1.4c0.1,0.4,0.4,0.8,0.7,1c0.4,0.2,0.8,0.3,1.2,0.3l1.5,0c1,0,1.9,0,2.9,0c7.7,0,15.1,0.1,22.1,0.1
						c14.1,0.1,26.8,0.2,37.5,0.2c10.7,0.1,19.3,0.2,25.3,0.2c3,0,5.3,0.1,6.9,0.1c0.8,0,1.4,0,1.8,0
						C140,253.2,140.2,253.2,140.2,253.2s-0.2,0-0.6,0c-0.4,0-1,0-1.8,0c-1.6,0-3.9,0-6.9,0c-6,0-14.6,0-25.3,0
						c-10.7,0-23.4-0.1-37.5-0.1c-7.1,0-14.5-0.1-22.1-0.1c-1,0-1.9,0-2.9,0l-1.5,0c-0.5,0-1.1-0.1-1.5-0.4
						c-0.5-0.3-0.8-0.8-0.9-1.3c-0.1-0.6-0.1-1-0.1-1.5c0-1,0-2,0-3c0-2,0-4,0-6c0-1,0-2,0-3.1c0.1-1.2,1.2-2.1,2.3-2.1
						c32.5,0.2,62,0.3,83.3,0.5c5.3,0,10.2,0.1,14.4,0.1c0.5,0,1.1-0.1,1.6,0.1c0.5,0.2,1,0.5,1.2,1c0.3,0.4,0.3,1,0.3,1.5
						c0,0.5,0,0.9,0,1.4c0,1.8,0,3.5,0,5c0,1.5,0,2.8,0,4c0,0.6,0,1.1,0,1.6c0,0.5,0,1-0.2,1.3c-0.4,0.7-1,1-1.3,1.1
						C140.4,253.3,140.2,253.2,140.2,253.2z"/>
				</g>
			</g>
			<g>
				
					<rect x="46.6" y="197.5" transform="matrix(1 4.619090e-03 -4.619090e-03 1 0.9233 -0.322)" class="st2" width="47" height="4.4"/>
				
					<rect x="46.6" y="197.5" transform="matrix(1 4.619090e-03 -4.619090e-03 1 0.9233 -0.322)" class="st11" width="47" height="4.4"/>
			</g>
			<g>
				<g>
					<g>
						<path class="st2" d="M50.9,245.1c0,1.2-0.9,2.2-2.1,2.2c-1.1,0-2.1-1-2-2.2c0-1.2,0.9-2.2,2.1-2.2
							C50,242.9,50.9,243.9,50.9,245.1z"/>
					</g>
					<g>
						<path class="st2" d="M57.3,245.1c0,1.2-0.9,2.2-2.1,2.2s-2.1-1-2-2.2c0-1.2,0.9-2.2,2.1-2.2C56.4,242.9,57.3,243.9,57.3,245.1
							z"/>
					</g>
					<g>
						<path class="st2" d="M63.7,245.1c0,1.2-0.9,2.2-2.1,2.2c-1.1,0-2.1-1-2-2.2c0-1.2,0.9-2.2,2.1-2.2
							C62.8,242.9,63.7,243.9,63.7,245.1z"/>
					</g>
					<g>
						<path class="st2" d="M70,245.2c0,1.2-0.9,2.2-2.1,2.2c-1.1,0-2.1-1-2-2.2c0-1.2,0.9-2.2,2.1-2.2C69.1,243,70.1,244,70,245.2z"
							/>
					</g>
					<g>
						<path class="st2" d="M76.4,245.2c0,1.2-0.9,2.2-2.1,2.2c-1.1,0-2.1-1-2-2.2c0-1.2,0.9-2.2,2.1-2.2
							C75.5,243,76.4,244,76.4,245.2z"/>
					</g>
					<g>
						<path class="st2" d="M82.8,245.2c0,1.2-0.9,2.2-2.1,2.2c-1.1,0-2.1-1-2-2.2c0-1.2,0.9-2.2,2.1-2.2
							C81.9,243,82.8,244,82.8,245.2z"/>
					</g>
					<g>
						<path class="st2" d="M89.2,245.3c0,1.2-0.9,2.2-2.1,2.2c-1.1,0-2.1-1-2-2.2c0-1.2,0.9-2.2,2.1-2.2
							C88.3,243.1,89.2,244,89.2,245.3z"/>
					</g>
					<g>
						<path class="st2" d="M95.5,245.3c0,1.2-0.9,2.2-2.1,2.2c-1.1,0-2.1-1-2-2.2c0-1.2,0.9-2.2,2.1-2.2
							C94.6,243.1,95.5,244.1,95.5,245.3z"/>
					</g>
					<g>
						<path class="st2" d="M101.9,245.3c0,1.2-0.9,2.2-2.1,2.2c-1.1,0-2.1-1-2-2.2c0-1.2,0.9-2.2,2.1-2.2
							C101,243.1,101.9,244.1,101.9,245.3z"/>
					</g>
				</g>
				<g class="st12">
					<g>
						<path class="st5" d="M50.9,245.1c0,1.2-0.9,2.2-2.1,2.2c-1.1,0-2.1-1-2-2.2c0-1.2,0.9-2.2,2.1-2.2
							C50,242.9,50.9,243.9,50.9,245.1z"/>
					</g>
					<g>
						<path class="st5" d="M57.3,245.1c0,1.2-0.9,2.2-2.1,2.2s-2.1-1-2-2.2c0-1.2,0.9-2.2,2.1-2.2C56.4,242.9,57.3,243.9,57.3,245.1
							z"/>
					</g>
					<g>
						<path class="st5" d="M63.7,245.1c0,1.2-0.9,2.2-2.1,2.2c-1.1,0-2.1-1-2-2.2c0-1.2,0.9-2.2,2.1-2.2
							C62.8,242.9,63.7,243.9,63.7,245.1z"/>
					</g>
					<g>
						<path class="st5" d="M70,245.2c0,1.2-0.9,2.2-2.1,2.2c-1.1,0-2.1-1-2-2.2c0-1.2,0.9-2.2,2.1-2.2C69.1,243,70.1,244,70,245.2z"
							/>
					</g>
					<g>
						<path class="st5" d="M76.4,245.2c0,1.2-0.9,2.2-2.1,2.2c-1.1,0-2.1-1-2-2.2c0-1.2,0.9-2.2,2.1-2.2
							C75.5,243,76.4,244,76.4,245.2z"/>
					</g>
					<g>
						<path class="st5" d="M82.8,245.2c0,1.2-0.9,2.2-2.1,2.2c-1.1,0-2.1-1-2-2.2c0-1.2,0.9-2.2,2.1-2.2
							C81.9,243,82.8,244,82.8,245.2z"/>
					</g>
					<g>
						<path class="st5" d="M89.2,245.3c0,1.2-0.9,2.2-2.1,2.2c-1.1,0-2.1-1-2-2.2c0-1.2,0.9-2.2,2.1-2.2
							C88.3,243.1,89.2,244,89.2,245.3z"/>
					</g>
					<g>
						<path class="st5" d="M95.5,245.3c0,1.2-0.9,2.2-2.1,2.2c-1.1,0-2.1-1-2-2.2c0-1.2,0.9-2.2,2.1-2.2
							C94.6,243.1,95.5,244.1,95.5,245.3z"/>
					</g>
					<g>
						<path class="st5" d="M101.9,245.3c0,1.2-0.9,2.2-2.1,2.2c-1.1,0-2.1-1-2-2.2c0-1.2,0.9-2.2,2.1-2.2
							C101,243.1,101.9,244.1,101.9,245.3z"/>
					</g>
				</g>
			</g>
			<g>
				<g>
					<path class="st2" d="M92.9,100.9c1.3-0.6,2.3-2,2.3-3.6c0-2.1-1.6-3.9-3.6-3.9c-2,0-3.6,1.7-3.7,3.9c0,1.7,1,3.1,2.3,3.6
						c-5.6,0.8-5.3,6.9-5.3,6.9l13.2,0.1C98.1,107.9,98.4,101.8,92.9,100.9z"/>
					<path class="st9" d="M92.9,100.9c1.3-0.6,2.3-2,2.3-3.6c0-2.1-1.6-3.9-3.6-3.9c-2,0-3.6,1.7-3.7,3.9c0,1.7,1,3.1,2.3,3.6
						c-5.6,0.8-5.3,6.9-5.3,6.9l13.2,0.1C98.1,107.9,98.4,101.8,92.9,100.9z"/>
				</g>
				<g>
					
						<rect x="67.2" y="111.8" transform="matrix(1 4.615101e-03 -4.615101e-03 1 0.53 -0.4176)" class="st2" width="47.2" height="5.6"/>
					
						<rect x="67.2" y="111.8" transform="matrix(1 4.615101e-03 -4.615101e-03 1 0.53 -0.4176)" class="st11" width="47.2" height="5.6"/>
				</g>
			</g>
		</g>
	</g>
</g>
<g id="Speech_Bubble">
</g>
<g id="Character">
</g>
</svg>
