<svg height='300px' width='300px'  fill="#41b7ea" xmlns="http://www.w3.org/2000/svg" data-name="Layer 1" viewBox="0 0 100 100" x="0px" y="0px"><title>84</title><g data-name="Group"><path data-name="Compound Path" d="M27.6,10.7v-6H14.9V27.3A21.8,21.8,0,0,0,33.7,48.9V73.7a21.6,21.6,0,1,0,43.2,0V60.3a11.3,11.3,0,1,0-6,0V73.7a15.6,15.6,0,1,1-31.2,0V48.9A21.8,21.8,0,0,0,58.4,27.3V4.7H45.7v6h6.7V27.3a15.7,15.7,0,0,1-31.5,0V10.7ZM68.5,49.4a5.3,5.3,0,1,1,5.3,5.3A5.3,5.3,0,0,1,68.5,49.4Z"></path></g></svg>