<svg id="Layer_1" data-name="Layer 1" xmlns="http://www.w3.org/2000/svg" viewBox="0 0 2650 2000"><defs><style>.cls-1{fill:#eab96c;}.cls-2{fill:#f47458;}.cls-3{fill:#fff;}.cls-4{fill:#13375b;}.cls-5{fill:#96d9c9;}.cls-6{fill:#3c8f7c;}.cls-7{fill:#355389;}.cls-8{fill:#f7a491;}.cls-9{fill:#184655;}.cls-10{fill:#466eb6;}.cls-11{fill:#50bfa5;}.cls-12{fill:#f48c7f;}.cls-13{fill:#f7cc7f;}.cls-14{fill:#b75742;}</style></defs><rect class="cls-1" width="2650" height="2000"/><path class="cls-2" d="M1283.3,421.77a18.63,18.63,0,1,1,22.91-13A18.64,18.64,0,0,1,1283.3,421.77Z" transform="translate(175.78)"/><path class="cls-2" d="M1040.06,367.51a18.64,18.64,0,1,1,22.91-13A18.65,18.65,0,0,1,1040.06,367.51Z" transform="translate(175.78)"/><path class="cls-2" d="M1042.58,544.73a18.63,18.63,0,1,1,22.91-13A18.64,18.64,0,0,1,1042.58,544.73Z" transform="translate(175.78)"/><path class="cls-2" d="M1247.22,538.74a22.34,22.34,0,1,1,27.47-15.61A22.34,22.34,0,0,1,1247.22,538.74Z" transform="translate(175.78)"/><path class="cls-2" d="M1258.27,469.62a12.77,12.77,0,1,1,16.74-6.74A12.76,12.76,0,0,1,1258.27,469.62Z" transform="translate(175.78)"/><path class="cls-2" d="M1109.75,557.17a12.76,12.76,0,1,1,15.69-8.92A12.76,12.76,0,0,1,1109.75,557.17Z" transform="translate(175.78)"/><path class="cls-2" d="M1116.76,315.27a12.77,12.77,0,1,1,15.69-8.92A12.77,12.77,0,0,1,1116.76,315.27Z" transform="translate(175.78)"/><path class="cls-2" d="M1217.83,340.88a28.72,28.72,0,1,1,35.32-20.07A28.72,28.72,0,0,1,1217.83,340.88Z" transform="translate(175.78)"/><path class="cls-2" d="M1001.7,460.68A28.72,28.72,0,1,1,1037,440.61,28.72,28.72,0,0,1,1001.7,460.68Z" transform="translate(175.78)"/><path class="cls-2" d="M1157.14,610.46a28.72,28.72,0,1,1,35.31-20.07A28.72,28.72,0,0,1,1157.14,610.46Z" transform="translate(175.78)"/><path class="cls-2" d="M1174.4,580.11a59.89,59.89,0,0,1-6.76-16,102,102,0,0,1-3.47-24.92c0-1.82-.15-7.16-.05-15.77a90.47,90.47,0,0,0,48.6-29.58c1.42.55,2.82,1.11,4.21,1.7,3.27,1.36,6.48,2.81,9.63,4.32,8.71,4.27,19.22,11.88,23.42,20.25l7.47-9.91a27.27,27.27,0,0,1-5.23-1.61,45.86,45.86,0,0,1-4.73-2.28,57.29,57.29,0,0,1-8.49-5.84,71.4,71.4,0,0,1-7.48-7.19q-3.49-3.93-6.82-8.06-1.56-2-3.07-3.94a90.56,90.56,0,0,0,10.68-28c9.29,1.6,21.63,4.25,29.74,9.09l2.44-8.89c-9.73,0-22-4.24-31-7.71a89.14,89.14,0,0,0-.81-25.83c15.5-4.76,37.88-11.93,54.38-10L1285,397.67c-15,7.3-38.77,7.88-55.89,8.48A90.42,90.42,0,0,0,1199,364.3c7.41-14.95,15.2-30.11,27.85-41.3a43,43,0,0,1,5.88-4.5l-14.64-10.62a43.12,43.12,0,0,1-2.44,7c-6.83,15.78-19.29,28.26-31.46,40.14a90.43,90.43,0,0,0-51.32-8.82c-4.27-11.23-7.77-20.89-8.66-32.1a44.76,44.76,0,0,1,.46-11.8l-9.13,1.32a33.09,33.09,0,0,1,2.28,5.54c4.12,12.65,3.3,26.16,2.25,39.59a90.52,90.52,0,0,0-37.34,20.76c-8.19-3.91-25-11.53-31.23-23l-7.54,9.85c6.15,1.5,13,6.24,17.73,10.59,3.28,3,9.13,9.58,11.72,12.59a90.3,90.3,0,0,0-19.18,47.86,98.1,98.1,0,0,1-25.45.89c-8-.86-18-3.37-24-7.42l-1.4,18c6.61-3.07,16.88-4,24.87-3.61a98.48,98.48,0,0,1,25.73,5.05,90.17,90.17,0,0,0,18.3,49.83c-5.06,7.38-15.68,23-25.87,31.71l9.11,8.43c7.06-9.68,20.3-20.72,28.56-27.38A89.69,89.69,0,0,0,1119,522.16c-2.07,6.7-5.76,15.7-10.23,21.13l8.66,3.15c.06-7.13,3.11-16.6,5.89-23.15a89.57,89.57,0,0,0,28,2.11c2.29,8,3.53,12.94,4.08,15,3.21,12.65,5,29.89,1,42.17Z" transform="translate(175.78)"/><path class="cls-3" d="M1188.32,390.56c-1.82,5-10.88,6.36-20.24,3s-15.49-10.2-13.67-15.23,10.88-6.36,20.24-3S1190.14,385.54,1188.32,390.56Z" transform="translate(175.78)"/><path class="cls-3" d="M1095.7,406.19c-2.56,7.08-8.33,11.49-12.9,9.83s-6.2-8.72-3.64-15.81,8.34-11.48,12.91-9.83S1098.26,399.11,1095.7,406.19Z" transform="translate(175.78)"/><path class="cls-3" d="M1137.07,479.33c-3.45,5.14-12.44,5.16-20.06,0s-11-13.46-7.55-18.6,12.45-5.16,20.07,0S1140.53,474.18,1137.07,479.33Z" transform="translate(175.78)"/><path class="cls-3" d="M1217.82,451.26c-3,8.45-9.6,13.83-14.63,12s-6.62-10.14-3.56-18.59,9.6-13.83,14.62-12S1220.88,442.81,1217.82,451.26Z" transform="translate(175.78)"/><path class="cls-3" d="M1190.22,477.45c-.94-3.77-7.06-5.48-13.65-3.82s-11.18,6.06-10.23,9.83,7.06,5.48,13.66,3.82S1191.17,481.22,1190.22,477.45Z" transform="translate(175.78)"/><path class="cls-3" d="M1113.77,357.64c-4.08,1.56-6.76,4.49-6,6.53s4.72,2.42,8.8.86,6.76-4.49,6-6.53S1117.85,356.07,1113.77,357.64Z" transform="translate(175.78)"/><path class="cls-3" d="M1066.8,450.22c.77,4.3,2.69,7.56,4.29,7.28s2.27-4,1.5-8.32-2.69-7.55-4.29-7.27S1066,445.92,1066.8,450.22Z" transform="translate(175.78)"/><path class="cls-3" d="M1130.49,506.69c4.26,1,8,.48,8.37-1.1s-2.8-3.66-7.06-4.64-8-.48-8.37,1.1S1126.23,505.71,1130.49,506.69Z" transform="translate(175.78)"/><path class="cls-3" d="M1181,361.73c-.82,2.28-6.49,2.32-12.66.1s-10.49-5.89-9.67-8.17,6.49-2.33,12.66-.11S1181.8,359.44,1181,361.73Z" transform="translate(175.78)"/><path class="cls-3" d="M1125.87,423.64c-2.23,6.17-7,10.1-10.65,8.77s-4.81-7.39-2.58-13.55,7-10.1,10.65-8.78S1128.1,417.47,1125.87,423.64Z" transform="translate(175.78)"/><path class="cls-3" d="M1220.47,406.73c.82,6.5-1.64,12.17-5.49,12.66s-7.65-4.39-8.47-10.9,1.64-12.17,5.49-12.66S1219.65,400.22,1220.47,406.73Z" transform="translate(175.78)"/><path class="cls-3" d="M1172.52,443.78c.55,7.51-5.49,14.06-13.48,14.64s-14.92-5-15.46-12.54,5.49-14.07,13.49-14.65S1172,436.27,1172.52,443.78Z" transform="translate(175.78)"/><path class="cls-2" d="M767.4,866.28a23.11,23.11,0,1,1,28.42-16.15A23.12,23.12,0,0,1,767.4,866.28Z" transform="translate(175.78)"/><path class="cls-2" d="M465.7,799a23.11,23.11,0,1,1,28.42-16.15A23.11,23.11,0,0,1,465.7,799Z" transform="translate(175.78)"/><path class="cls-2" d="M468.83,1018.79a23.11,23.11,0,1,1,28.41-16.15A23.11,23.11,0,0,1,468.83,1018.79Z" transform="translate(175.78)"/><path class="cls-2" d="M722.65,1011.36A27.71,27.71,0,1,1,756.72,992,27.7,27.7,0,0,1,722.65,1011.36Z" transform="translate(175.78)"/><path class="cls-2" d="M736.35,925.63a15.84,15.84,0,1,1,20.78-8.36A15.84,15.84,0,0,1,736.35,925.63Z" transform="translate(175.78)"/><path class="cls-2" d="M552.14,1034.22a15.83,15.83,0,1,1,19.47-11.06A15.83,15.83,0,0,1,552.14,1034.22Z" transform="translate(175.78)"/><path class="cls-2" d="M560.83,734.17a15.83,15.83,0,1,1,19.47-11.06A15.82,15.82,0,0,1,560.83,734.17Z" transform="translate(175.78)"/><circle class="cls-2" cx="695.65" cy="731.6" r="35.62" transform="translate(-132.98 630.01) rotate(-40.67)"/><path class="cls-2" d="M418.13,914.54a35.63,35.63,0,1,1,43.8-24.89A35.63,35.63,0,0,1,418.13,914.54Z" transform="translate(175.78)"/><path class="cls-2" d="M610.92,1100.31a35.62,35.62,0,1,1,43.8-24.89A35.63,35.63,0,0,1,610.92,1100.31Z" transform="translate(175.78)"/><path class="cls-2" d="M632.33,1062.68c-3.73-5.71-6.54-13.23-8.39-19.86a126.61,126.61,0,0,1-4.3-30.9c0-2.25-.18-8.89-.07-19.56a112.15,112.15,0,0,0,60.29-36.7q2.64,1,5.22,2.11c4.06,1.69,8,3.49,11.95,5.36,10.8,5.3,23.84,14.74,29.05,25.12L735.34,976a34.12,34.12,0,0,1-6.49-2,55.71,55.71,0,0,1-5.87-2.83,70.7,70.7,0,0,1-10.53-7.24,90.6,90.6,0,0,1-9.28-8.91q-4.32-4.87-8.45-10c-1.29-1.6-2.55-3.23-3.8-4.88a112.41,112.41,0,0,0,13.24-34.8c11.52,2,26.83,5.28,36.88,11.28l3-11c-12.08,0-27.31-5.26-38.46-9.57a110.89,110.89,0,0,0-1-32c19.22-5.91,47-14.8,67.45-12.39l-2.57-15.18c-18.64,9.06-48.08,9.78-69.32,10.53A112.2,112.2,0,0,0,662.89,795c9.19-18.53,18.86-37.35,34.54-51.23a55.55,55.55,0,0,1,7.3-5.58L686.57,725a54.18,54.18,0,0,1-3,8.68c-8.47,19.58-23.92,35.06-39,49.79a112.15,112.15,0,0,0-63.65-10.94c-5.3-13.93-9.64-25.91-10.74-39.82a55.9,55.9,0,0,1,.56-14.63l-11.32,1.64a41.44,41.44,0,0,1,2.83,6.86c5.11,15.7,4.1,32.45,2.79,49.11a112.33,112.33,0,0,0-46.31,25.76c-10.16-4.85-30.95-14.31-38.73-28.52l-9.37,12.22c7.64,1.85,16.07,7.74,22,13.14,4.07,3.66,11.32,11.88,14.54,15.6a112.12,112.12,0,0,0-23.8,59.37,121.24,121.24,0,0,1-31.56,1.1c-9.89-1.06-22.29-4.18-29.78-9.19l-1.74,22.36c8.2-3.81,20.94-5,30.84-4.48A122.07,122.07,0,0,1,483,889.32a112,112,0,0,0,22.7,61.81c-6.27,9.15-19.45,28.55-32.08,39.33l11.3,10.46c8.75-12,25.17-25.7,35.42-34a111.27,111.27,0,0,0,43.32,23.85c-2.57,8.3-7.14,19.47-12.69,26.2l10.74,3.91c.08-8.84,3.87-20.6,7.32-28.71a111.49,111.49,0,0,0,34.73,2.62c2.85,9.89,4.39,16,5.06,18.57,4,15.68,6.15,37.06,1.28,52.3Z" transform="translate(175.78)"/><path class="cls-3" d="M649.6,827.57c-2.26,6.23-13.5,7.88-25.12,3.68s-19.2-12.65-17-18.88,13.5-7.88,25.11-3.69S651.85,821.34,649.6,827.57Z" transform="translate(175.78)"/><path class="cls-3" d="M534.72,847c-3.18,8.79-10.34,14.25-16,12.2s-7.69-10.83-4.51-19.61,10.34-14.24,16-12.2S537.89,838.17,534.72,847Z" transform="translate(175.78)"/><path class="cls-3" d="M586,937.66c-4.29,6.39-15.43,6.41-24.89.05s-13.65-16.68-9.36-23.06,15.44-6.41,24.9,0S590.32,931.28,586,937.66Z" transform="translate(175.78)"/><path class="cls-3" d="M686.19,902.85C682.4,913.33,674.28,920,668,917.75s-8.21-12.58-4.42-23.06,11.91-17.15,18.14-14.9S690,892.37,686.19,902.85Z" transform="translate(175.78)"/><path class="cls-3" d="M652,935.34c-1.18-4.68-8.76-6.8-16.94-4.74s-13.86,7.51-12.69,12.19,8.76,6.79,16.94,4.74S653.13,940,652,935.34Z" transform="translate(175.78)"/><path class="cls-3" d="M557.13,786.73c-5.07,1.94-8.38,5.56-7.41,8.1s5.86,3,10.92,1.06,8.38-5.56,7.41-8.09S562.19,784.79,557.13,786.73Z" transform="translate(175.78)"/><path class="cls-3" d="M498.86,901.56c1,5.34,3.34,9.38,5.33,9s2.82-5,1.86-10.31-3.33-9.38-5.32-9S497.91,896.23,498.86,901.56Z" transform="translate(175.78)"/><path class="cls-3" d="M577.86,971.6c5.29,1.21,9.94.6,10.39-1.36s-3.47-4.54-8.76-5.75-9.93-.6-10.38,1.36S572.58,970.39,577.86,971.6Z" transform="translate(175.78)"/><path class="cls-3" d="M640.48,791.8c-1,2.83-8.05,2.89-15.7.12s-13-7.3-12-10.13,8.06-2.89,15.71-.13S641.51,789,640.48,791.8Z" transform="translate(175.78)"/><path class="cls-3" d="M572.14,868.59c-2.77,7.65-8.68,12.53-13.22,10.89s-6-9.17-3.2-16.82,8.68-12.52,13.21-10.88S574.9,860.94,572.14,868.59Z" transform="translate(175.78)"/><path class="cls-3" d="M689.47,847.61c1,8.07-2,15.11-6.81,15.71s-9.48-5.45-10.5-13.52,2-15.1,6.81-15.7S688.45,839.55,689.47,847.61Z" transform="translate(175.78)"/><path class="cls-3" d="M630,893.57c.68,9.32-6.81,17.45-16.73,18.17s-18.5-6.25-19.17-15.56,6.81-17.45,16.73-18.16S629.33,884.26,630,893.57Z" transform="translate(175.78)"/><path class="cls-2" d="M1794,1371.42a22.59,22.59,0,1,1,27.78-15.78A22.58,22.58,0,0,1,1794,1371.42Z" transform="translate(175.78)"/><path class="cls-2" d="M1499.09,1305.64a22.59,22.59,0,1,1,27.77-15.79A22.59,22.59,0,0,1,1499.09,1305.64Z" transform="translate(175.78)"/><path class="cls-2" d="M1502.15,1520.48a22.59,22.59,0,1,1,27.77-15.79A22.6,22.6,0,0,1,1502.15,1520.48Z" transform="translate(175.78)"/><path class="cls-2" d="M1750.22,1513.22a27.08,27.08,0,1,1,33.29-18.93A27.08,27.08,0,0,1,1750.22,1513.22Z" transform="translate(175.78)"/><path class="cls-2" d="M1763.61,1429.42a15.47,15.47,0,1,1,20.3-8.16A15.47,15.47,0,0,1,1763.61,1429.42Z" transform="translate(175.78)"/><path class="cls-2" d="M1583.57,1535.56a15.48,15.48,0,1,1,19-10.81A15.48,15.48,0,0,1,1583.57,1535.56Z" transform="translate(175.78)"/><path class="cls-2" d="M1592.07,1242.31a15.47,15.47,0,1,1,19-10.81A15.47,15.47,0,0,1,1592.07,1242.31Z" transform="translate(175.78)"/><path class="cls-2" d="M1714.59,1273.36A34.81,34.81,0,1,1,1757.4,1249,34.81,34.81,0,0,1,1714.59,1273.36Z" transform="translate(175.78)"/><path class="cls-2" d="M1452.6,1418.59a34.82,34.82,0,1,1,42.8-24.33A34.81,34.81,0,0,1,1452.6,1418.59Z" transform="translate(175.78)"/><path class="cls-2" d="M1641,1600.15a34.82,34.82,0,1,1,42.81-24.33A34.81,34.81,0,0,1,1641,1600.15Z" transform="translate(175.78)"/><path class="cls-2" d="M1661.94,1563.37c-3.64-5.58-6.38-12.93-8.19-19.41a123.81,123.81,0,0,1-4.21-30.2c0-2.2-.18-8.68-.06-19.12a109.6,109.6,0,0,0,58.92-35.86c1.71.67,3.41,1.35,5.1,2.06,4,1.65,7.85,3.41,11.68,5.24,10.55,5.18,23.3,14.4,28.38,24.55l9-12a32.3,32.3,0,0,1-6.34-1.95,55,55,0,0,1-5.73-2.76,69.77,69.77,0,0,1-10.29-7.08,87.6,87.6,0,0,1-9.07-8.71q-4.23-4.75-8.26-9.78-1.89-2.36-3.72-4.77a109.73,109.73,0,0,0,12.94-34c11.26,1.94,26.23,5.16,36,11l3-10.78c-11.8,0-26.69-5.14-37.59-9.35a108.79,108.79,0,0,0-1-31.31c18.78-5.77,45.91-14.46,65.91-12.1L1796,1342.2c-18.22,8.85-47,9.56-67.75,10.29a109.58,109.58,0,0,0-36.44-50.74c9-18.11,18.43-36.5,33.76-50.06a53.05,53.05,0,0,1,7.13-5.46L1715,1233.36a54,54,0,0,1-3,8.48c-8.28,19.13-23.38,34.26-38.13,48.66a109.72,109.72,0,0,0-62.21-10.69c-5.18-13.61-9.42-25.32-10.5-38.91a54.76,54.76,0,0,1,.55-14.31l-11.06,1.61a41,41,0,0,1,2.77,6.71c5,15.33,4,31.71,2.73,48a109.76,109.76,0,0,0-45.27,25.17c-9.93-4.74-30.24-14-37.85-27.87l-9.16,11.94c7.47,1.81,15.71,7.57,21.5,12.84,4,3.58,11.07,11.61,14.21,15.25a109.67,109.67,0,0,0-23.26,58,118.35,118.35,0,0,1-30.84,1.08c-9.67-1-21.79-4.08-29.11-9l-1.7,21.86c8-3.72,20.47-4.85,30.15-4.38a119.87,119.87,0,0,1,31.19,6.12,109.4,109.4,0,0,0,22.19,60.41c-6.14,8.94-19,27.9-31.36,38.44l11,10.22c8.56-11.74,24.6-25.12,34.62-33.2a108.87,108.87,0,0,0,42.34,23.31c-2.51,8.12-7,19-12.4,25.61l10.5,3.82c.07-8.64,3.78-20.13,7.15-28.06A108.83,108.83,0,0,0,1634,1497c2.78,9.67,4.29,15.69,5,18.15,3.89,15.33,6,36.23,1.25,51.12Z" transform="translate(175.78)"/><path class="cls-3" d="M1678.82,1333.59c-2.2,6.09-13.19,7.71-24.54,3.6s-18.77-12.36-16.57-18.45,13.19-7.71,24.54-3.61S1681,1327.5,1678.82,1333.59Z" transform="translate(175.78)"/><path class="cls-3" d="M1566.55,1352.54c-3.11,8.58-10.11,13.92-15.65,11.92s-7.51-10.59-4.41-19.17,10.11-13.92,15.64-11.92S1569.65,1344,1566.55,1352.54Z" transform="translate(175.78)"/><path class="cls-3" d="M1616.7,1441.19c-4.2,6.24-15.09,6.26-24.33,0s-13.34-16.31-9.14-22.54,15.08-6.26,24.32,0S1620.89,1435,1616.7,1441.19Z" transform="translate(175.78)"/><path class="cls-3" d="M1714.58,1407.16c-3.7,10.25-11.64,16.77-17.73,14.57s-8-12.29-4.33-22.54,11.64-16.76,17.73-14.56S1718.28,1396.92,1714.58,1407.16Z" transform="translate(175.78)"/><path class="cls-3" d="M1681.12,1438.92c-1.14-4.57-8.56-6.65-16.55-4.64s-13.54,7.35-12.4,11.92,8.56,6.64,16.56,4.63S1682.27,1443.49,1681.12,1438.92Z" transform="translate(175.78)"/><path class="cls-3" d="M1588.45,1293.68c-5,1.89-8.19,5.44-7.25,7.91s5.73,2.94,10.68,1,8.19-5.44,7.24-7.91S1593.39,1291.78,1588.45,1293.68Z" transform="translate(175.78)"/><path class="cls-3" d="M1531.5,1405.91c.94,5.21,3.27,9.16,5.21,8.82s2.75-4.86,1.82-10.08-3.26-9.16-5.2-8.82S1530.57,1400.69,1531.5,1405.91Z" transform="translate(175.78)"/><path class="cls-3" d="M1608.71,1474.36c5.17,1.18,9.71.58,10.15-1.34s-3.39-4.43-8.56-5.62-9.71-.58-10.15,1.34S1603.55,1473.17,1608.71,1474.36Z" transform="translate(175.78)"/><path class="cls-3" d="M1669.91,1298.63c-1,2.77-7.87,2.83-15.35.12s-12.72-7.13-11.72-9.9,7.87-2.82,15.35-.12S1670.91,1295.86,1669.91,1298.63Z" transform="translate(175.78)"/><path class="cls-3" d="M1603.11,1373.69c-2.7,7.47-8.48,12.23-12.91,10.63s-5.83-9-3.13-16.43,8.48-12.24,12.91-10.64S1605.82,1366.21,1603.11,1373.69Z" transform="translate(175.78)"/><path class="cls-3" d="M1717.79,1353.18c1,7.89-2,14.76-6.66,15.35s-9.27-5.32-10.26-13.21,2-14.76,6.65-15.35S1716.79,1345.3,1717.79,1353.18Z" transform="translate(175.78)"/><path class="cls-3" d="M1659.67,1398.1c.66,9.1-6.66,17.05-16.35,17.75s-18.08-6.11-18.74-15.21,6.66-17,16.35-17.75S1659,1389,1659.67,1398.1Z" transform="translate(175.78)"/><path class="cls-2" d="M1775.63,738.06A12.54,12.54,0,1,1,1791,729.3,12.55,12.55,0,0,1,1775.63,738.06Z" transform="translate(175.78)"/><path class="cls-2" d="M1612,701.55a12.54,12.54,0,1,1,15.42-8.76A12.54,12.54,0,0,1,1612,701.55Z" transform="translate(175.78)"/><circle class="cls-2" cx="1616.98" cy="808.71" r="12.54" transform="translate(713.02 2258.81) rotate(-79.9)"/><path class="cls-2" d="M1751.35,816.77a15,15,0,1,1,18.48-10.5A15,15,0,0,1,1751.35,816.77Z" transform="translate(175.78)"/><path class="cls-2" d="M1758.78,770.26a8.59,8.59,0,1,1,11.27-4.54A8.59,8.59,0,0,1,1758.78,770.26Z" transform="translate(175.78)"/><path class="cls-2" d="M1658.85,829.17a8.59,8.59,0,1,1,10.56-6A8.6,8.6,0,0,1,1658.85,829.17Z" transform="translate(175.78)"/><path class="cls-2" d="M1663.56,666.4a8.59,8.59,0,1,1,10.56-6A8.59,8.59,0,0,1,1663.56,666.4Z" transform="translate(175.78)"/><path class="cls-2" d="M1731.57,683.63a19.32,19.32,0,1,1,23.77-13.5A19.32,19.32,0,0,1,1731.57,683.63Z" transform="translate(175.78)"/><path class="cls-2" d="M1586.14,764.24a19.32,19.32,0,1,1,23.77-13.5A19.32,19.32,0,0,1,1586.14,764.24Z" transform="translate(175.78)"/><path class="cls-2" d="M1690.73,865a19.33,19.33,0,1,1,23.76-13.51A19.34,19.34,0,0,1,1690.73,865Z" transform="translate(175.78)"/><path class="cls-2" d="M1702.35,844.61a40.2,40.2,0,0,1-4.55-10.77,69.15,69.15,0,0,1-2.34-16.77c0-1.22-.09-4.82,0-10.61a60.93,60.93,0,0,0,32.71-19.91c.95.37,1.89.76,2.83,1.15,2.2.91,4.35,1.89,6.48,2.91,5.86,2.87,12.93,8,15.76,13.62l5-6.67a17.61,17.61,0,0,1-3.52-1.08,28.29,28.29,0,0,1-3.18-1.54,37.55,37.55,0,0,1-5.71-3.93,47.8,47.8,0,0,1-5-4.83q-2.34-2.64-4.58-5.43-1-1.31-2.07-2.64a60.94,60.94,0,0,0,7.19-18.88c6.25,1.07,14.55,2.86,20,6.12l1.64-6c-6.55,0-14.81-2.86-20.86-5.2a60.34,60.34,0,0,0-.54-17.37c10.42-3.21,25.49-8,36.59-6.72l-1.4-8.24c-10.11,4.92-26.08,5.31-37.6,5.71a60.93,60.93,0,0,0-20.23-28.16c5-10.06,10.23-20.26,18.74-27.79a29.56,29.56,0,0,1,4-3l-9.85-7.14a29.94,29.94,0,0,1-1.65,4.7c-4.6,10.62-13,19-21.17,27a60.77,60.77,0,0,0-34.53-5.94c-2.87-7.56-5.22-14.06-5.82-21.6a30.1,30.1,0,0,1,.3-7.94l-6.14.89a23.69,23.69,0,0,1,1.54,3.72c2.77,8.52,2.22,17.61,1.51,26.64a61,61,0,0,0-25.13,14c-5.51-2.63-16.78-7.77-21-15.48l-5.08,6.63c4.14,1,8.72,4.2,11.93,7.13,2.21,2,6.15,6.45,7.89,8.47a60.9,60.9,0,0,0-12.91,32.2,65.4,65.4,0,0,1-17.12.6c-5.36-.57-12.09-2.27-16.16-5l-.94,12.14c4.45-2.07,11.36-2.7,16.73-2.43a66,66,0,0,1,17.32,3.39,60.71,60.71,0,0,0,12.31,33.53c-3.4,5-10.55,15.49-17.4,21.34l6.13,5.67c4.75-6.51,13.65-13.94,19.22-18.42a60.34,60.34,0,0,0,23.5,12.93c-1.4,4.51-3.87,10.57-6.89,14.22L1664,822c0-4.8,2.1-11.17,4-15.58a60.07,60.07,0,0,0,18.84,1.42c1.54,5.37,2.38,8.71,2.75,10.08,2.16,8.5,3.33,20.1.69,28.37Z" transform="translate(175.78)"/><path class="cls-3" d="M1711.72,717.06c-1.23,3.38-7.32,4.28-13.63,2s-10.42-6.86-9.19-10.24,7.32-4.28,13.62-2S1712.94,713.68,1711.72,717.06Z" transform="translate(175.78)"/><path class="cls-3" d="M1649.4,727.58c-1.73,4.76-5.61,7.73-8.69,6.61s-4.17-5.87-2.45-10.63,5.61-7.73,8.69-6.62S1651.12,722.81,1649.4,727.58Z" transform="translate(175.78)"/><path class="cls-3" d="M1677.23,776.79c-2.32,3.46-8.37,3.47-13.5,0s-7.4-9.05-5.08-12.52,8.38-3.47,13.51,0S1679.56,773.33,1677.23,776.79Z" transform="translate(175.78)"/><path class="cls-3" d="M1731.57,757.9c-2.06,5.69-6.46,9.31-9.84,8.09s-4.46-6.83-2.41-12.51,6.46-9.31,9.85-8.09S1733.62,752.21,1731.57,757.9Z" transform="translate(175.78)"/><path class="cls-3" d="M1713,775.53c-.64-2.54-4.76-3.69-9.19-2.57s-7.52,4.07-6.88,6.61,4.75,3.68,9.19,2.57S1713.63,778.06,1713,775.53Z" transform="translate(175.78)"/><path class="cls-3" d="M1661.55,694.91c-2.74,1.05-4.54,3-4,4.39s3.18,1.63,5.93.58,4.54-3,4-4.39S1664.3,693.85,1661.55,694.91Z" transform="translate(175.78)"/><path class="cls-3" d="M1629.94,757.2c.52,2.9,1.81,5.09,2.89,4.9s1.53-2.7,1-5.59-1.81-5.09-2.88-4.9S1629.43,754.31,1629.94,757.2Z" transform="translate(175.78)"/><path class="cls-3" d="M1672.8,795.2c2.87.66,5.39.33,5.63-.74s-1.88-2.46-4.74-3.12-5.39-.33-5.64.74S1669.93,794.54,1672.8,795.2Z" transform="translate(175.78)"/><path class="cls-3" d="M1706.77,697.66c-.55,1.53-4.37,1.56-8.52.06s-7.06-4-6.51-5.49,4.37-1.57,8.52-.07S1707.33,696.12,1706.77,697.66Z" transform="translate(175.78)"/><path class="cls-3" d="M1669.69,739.32c-1.5,4.15-4.71,6.79-7.16,5.9s-3.24-5-1.74-9.12,4.71-6.79,7.17-5.9S1671.19,735.17,1669.69,739.32Z" transform="translate(175.78)"/><path class="cls-3" d="M1733.35,727.94c.55,4.37-1.1,8.19-3.7,8.52s-5.14-3-5.69-7.33,1.1-8.2,3.69-8.53S1732.8,723.56,1733.35,727.94Z" transform="translate(175.78)"/><path class="cls-3" d="M1701.09,752.87c.36,5-3.7,9.46-9.08,9.85s-10-3.39-10.4-8.44,3.7-9.46,9.07-9.85S1700.72,747.82,1701.09,752.87Z" transform="translate(175.78)"/><rect class="cls-4" x="692.93" y="1794.55" width="1103.67" height="13.44"/><path class="cls-5" d="M610.11,1202.07a11.31,11.31,0,1,1-11.31-11.3A11.31,11.31,0,0,1,610.11,1202.07Z" transform="translate(175.78)"/><path class="cls-5" d="M617.53,1353.08a11.31,11.31,0,1,1-11.3-11.31A11.3,11.3,0,0,1,617.53,1353.08Z" transform="translate(175.78)"/><circle class="cls-5" cx="885.26" cy="1323.07" r="11.3"/><path class="cls-5" d="M684.33,1204.34a13.55,13.55,0,1,1-13.55-13.55A13.55,13.55,0,0,1,684.33,1204.34Z" transform="translate(175.78)"/><path class="cls-5" d="M642.12,1209a7.74,7.74,0,1,1-6.63-8.71A7.74,7.74,0,0,1,642.12,1209Z" transform="translate(175.78)"/><path class="cls-5" d="M717.24,1281.78a7.75,7.75,0,1,1-7.74-7.74A7.74,7.74,0,0,1,717.24,1281.78Z" transform="translate(175.78)"/><path class="cls-5" d="M574.63,1316.63a7.75,7.75,0,1,1-7.75-7.75A7.75,7.75,0,0,1,574.63,1316.63Z" transform="translate(175.78)"/><path class="cls-5" d="M573.34,1253.39A17.43,17.43,0,1,1,555.91,1236,17.42,17.42,0,0,1,573.34,1253.39Z" transform="translate(175.78)"/><path class="cls-5" d="M678.2,1360.51a17.43,17.43,0,1,1-17.42-17.43A17.42,17.42,0,0,1,678.2,1360.51Z" transform="translate(175.78)"/><path class="cls-5" d="M739.51,1242.74a17.43,17.43,0,1,1-17.43-17.42A17.43,17.43,0,0,1,739.51,1242.74Z" transform="translate(175.78)"/><path class="cls-5" d="M720.25,1240.28a36.77,36.77,0,0,1-8.27,6.53,62.7,62.7,0,0,1-14,6c-1.06.3-4.16,1.24-9.21,2.57a54.88,54.88,0,0,0-25.13-23.67c.1-.92.2-1.83.32-2.73.27-2.14.6-4.24,1-6.33,1.1-5.78,3.86-13.16,8.08-17l-7-2.77a16.56,16.56,0,0,1-.1,3.32,28.81,28.81,0,0,1-.57,3.13,35,35,0,0,1-2.05,5.91,44.24,44.24,0,0,1-3,5.53c-1.16,1.78-2.36,3.54-3.62,5.28-.59.82-1.19,1.63-1.81,2.43a55,55,0,0,0-18.13-1.73c-.56-5.69-1-13.34.54-18.85h-5.6c1.58,5.69,1.07,13.56.48,19.37a54.44,54.44,0,0,0-15,4.63c-5.28-8.3-13.08-20.23-14.6-30.19l-6.82,3.18c6.69,7.61,10.85,21.4,14,31.32a54.78,54.78,0,0,0-19.64,24.32c-9.93-1.93-20.06-4-28.64-9.64a26.62,26.62,0,0,1-3.58-2.72L554,1258.52a27.33,27.33,0,0,1,4.48.31c10.34,1.45,19.64,6.73,28.55,11.93a54.78,54.78,0,0,0,3.1,31.44c-5.88,4.31-11,7.91-17.38,10.23a27.8,27.8,0,0,1-7,1.64l2.25,5.12a20.79,20.79,0,0,1,2.87-2.23c6.73-4.44,14.77-6.14,22.79-7.69a54.84,54.84,0,0,0,18.16,18.5c-1,5.42-2.73,16.45-8.42,22l7,2.83c-.11-3.85,1.57-8.59,3.34-12.08,1.2-2.4,4.14-6.88,5.48-8.88a54.77,54.77,0,0,0,31.08,3.51,59.15,59.15,0,0,1,4.61,14.74c.79,4.8.93,11.06-.47,15.24l10.77-2.08c-2.86-3.38-5.05-9.23-6.11-14a59.62,59.62,0,0,1-1.19-15.86,54.79,54.79,0,0,0,26.2-18.73c5.13,1.77,16,5.47,22.71,10l3.46-6.69c-6.8-2.56-15.38-8.53-20.61-12.29a54.47,54.47,0,0,0,5.62-23.53c4.25.14,10.11.84,14,2.59l.45-5.58c-4.18,1.12-10.21.85-14.49.28a54.28,54.28,0,0,0-3.27-16.72c4.3-2.62,7-4.15,8.1-4.79,6.88-3.92,16.68-7.71,24.5-7.39Z" transform="translate(175.78)"/><path class="cls-6" d="M1416.79,479.79A6.82,6.82,0,1,1,1410,473,6.82,6.82,0,0,1,1416.79,479.79Z" transform="translate(175.78)"/><path class="cls-6" d="M1421.27,570.94a6.83,6.83,0,1,1-6.82-6.82A6.82,6.82,0,0,1,1421.27,570.94Z" transform="translate(175.78)"/><circle class="cls-6" cx="1652.56" cy="552.83" r="6.82"/><path class="cls-6" d="M1461.6,481.16a8.18,8.18,0,1,1-8.18-8.18A8.18,8.18,0,0,1,1461.6,481.16Z" transform="translate(175.78)"/><path class="cls-6" d="M1436.12,484a4.67,4.67,0,1,1-4-5.26A4.68,4.68,0,0,1,1436.12,484Z" transform="translate(175.78)"/><circle class="cls-6" cx="1652.58" cy="527.91" r="4.67"/><circle class="cls-6" cx="1566.48" cy="548.94" r="4.67"/><path class="cls-6" d="M1394.6,510.76a10.52,10.52,0,1,1-10.52-10.51A10.52,10.52,0,0,1,1394.6,510.76Z" transform="translate(175.78)"/><path class="cls-6" d="M1457.9,575.43a10.52,10.52,0,1,1-10.52-10.52A10.52,10.52,0,0,1,1457.9,575.43Z" transform="translate(175.78)"/><path class="cls-6" d="M1494.91,504.34a10.52,10.52,0,1,1-10.52-10.52A10.51,10.51,0,0,1,1494.91,504.34Z" transform="translate(175.78)"/><path class="cls-6" d="M1483.28,502.85a21.75,21.75,0,0,1-5,3.94,37.56,37.56,0,0,1-8.46,3.65c-.64.18-2.51.75-5.56,1.55a33.22,33.22,0,0,0-15.17-14.29c.05-.55.12-1.1.19-1.65.16-1.28.36-2.56.59-3.82.66-3.49,2.32-7.94,4.87-10.24l-4.22-1.67a10.15,10.15,0,0,1-.06,2,16.76,16.76,0,0,1-.35,1.9,20.28,20.28,0,0,1-1.24,3.56,25.14,25.14,0,0,1-1.81,3.34c-.69,1.08-1.42,2.14-2.18,3.19l-1.09,1.47a33.21,33.21,0,0,0-11-1c-.33-3.43-.59-8.05.33-11.38h-3.38c1,3.44.64,8.19.29,11.7a32.45,32.45,0,0,0-9,2.79c-3.19-5-7.9-12.21-8.81-18.23l-4.12,1.92c4,4.6,6.55,12.92,8.43,18.91a33.1,33.1,0,0,0-11.86,14.68c-6-1.16-12.11-2.44-17.29-5.81a16.49,16.49,0,0,1-2.16-1.65l-2.33,6.21a16,16,0,0,1,2.71.18c6.24.88,11.86,4.06,17.23,7.2a33.08,33.08,0,0,0,1.88,19c-3.55,2.6-6.62,4.77-10.5,6.18a16.21,16.21,0,0,1-4.21,1l1.36,3.1a12.73,12.73,0,0,1,1.73-1.35c4.07-2.68,8.92-3.7,13.76-4.64a33.17,33.17,0,0,0,11,11.17c-.58,3.27-1.65,9.93-5.08,13.26l4.21,1.71a16.6,16.6,0,0,1,2-7.29c.72-1.45,2.49-4.16,3.3-5.37a33.05,33.05,0,0,0,18.76,2.13,35.77,35.77,0,0,1,2.79,8.89c.47,2.9.56,6.68-.28,9.2l6.5-1.25c-1.73-2-3.06-5.58-3.69-8.43a35.53,35.53,0,0,1-.72-9.58,33,33,0,0,0,15.81-11.31c3.1,1.07,9.65,3.31,13.71,6.06l2.09-4c-4.1-1.55-9.28-5.15-12.44-7.42a32.85,32.85,0,0,0,3.39-14.2,24.77,24.77,0,0,1,8.46,1.56l.27-3.37a25,25,0,0,1-8.75.17,33.06,33.06,0,0,0-2-10.09c2.59-1.59,4.22-2.51,4.88-2.9,4.16-2.36,10.07-4.65,14.79-4.46Z" transform="translate(175.78)"/><path class="cls-7" d="M1646.15,969.64a7.71,7.71,0,1,1-7.71-7.71A7.71,7.71,0,0,1,1646.15,969.64Z" transform="translate(175.78)"/><path class="cls-7" d="M1651.21,1072.57a7.71,7.71,0,1,1-7.71-7.7A7.71,7.71,0,0,1,1651.21,1072.57Z" transform="translate(175.78)"/><path class="cls-7" d="M1721.59,1052.12a7.71,7.71,0,1,1-7.71-7.71A7.71,7.71,0,0,1,1721.59,1052.12Z" transform="translate(175.78)"/><path class="cls-7" d="M1696.74,971.19a9.24,9.24,0,1,1-9.23-9.24A9.23,9.23,0,0,1,1696.74,971.19Z" transform="translate(175.78)"/><path class="cls-7" d="M1668,974.37a5.28,5.28,0,1,1-4.52-5.94A5.28,5.28,0,0,1,1668,974.37Z" transform="translate(175.78)"/><path class="cls-7" d="M1719.18,1024a5.28,5.28,0,1,1-5.28-5.28A5.28,5.28,0,0,1,1719.18,1024Z" transform="translate(175.78)"/><path class="cls-7" d="M1622,1047.73a5.28,5.28,0,1,1-5.28-5.28A5.27,5.27,0,0,1,1622,1047.73Z" transform="translate(175.78)"/><circle class="cls-7" cx="1609.21" cy="1004.62" r="11.88" transform="translate(437.52 2339.96) rotate(-76.72)"/><circle class="cls-7" cx="1680.69" cy="1077.64" r="11.88" transform="translate(-93.96 1504.06) rotate(-45)"/><path class="cls-7" d="M1734.35,997.36a11.88,11.88,0,1,1-11.87-11.88A11.87,11.87,0,0,1,1734.35,997.36Z" transform="translate(175.78)"/><path class="cls-7" d="M1721.23,995.68a25,25,0,0,1-5.64,4.45,42.8,42.8,0,0,1-9.55,4.12c-.73.2-2.84.84-6.29,1.75a37.39,37.39,0,0,0-17.13-16.13c.07-.63.14-1.25.22-1.87.19-1.45.41-2.89.67-4.31.74-3.94,2.62-9,5.5-11.56l-4.77-1.89a10.56,10.56,0,0,1-.07,2.26,18.77,18.77,0,0,1-.39,2.14,24.59,24.59,0,0,1-1.39,4,30.67,30.67,0,0,1-2.05,3.77q-1.18,1.81-2.47,3.6c-.4.55-.81,1.11-1.23,1.65a37.4,37.4,0,0,0-12.36-1.17c-.38-3.88-.67-9.1.37-12.86h-3.82c1.08,3.88.73,9.24.33,13.21A37.08,37.08,0,0,0,1651,990c-3.6-5.65-8.91-13.79-10-20.58l-4.65,2.17c4.56,5.19,7.4,14.59,9.52,21.35a37.38,37.38,0,0,0-13.39,16.58c-6.77-1.31-13.67-2.76-19.52-6.57a18.44,18.44,0,0,1-2.44-1.85l-2.63,7a18,18,0,0,1,3.06.21c7,1,13.38,4.58,19.46,8.13a37.4,37.4,0,0,0,2.11,21.43c-4,2.94-7.47,5.39-11.85,7a18.65,18.65,0,0,1-4.75,1.11l1.53,3.49a14.3,14.3,0,0,1,2-1.51c4.6-3,10.07-4.19,15.54-5.25a37.42,37.42,0,0,0,12.38,12.61c-.66,3.7-1.86,11.22-5.74,15l4.75,1.92a18.88,18.88,0,0,1,2.28-8.23c.82-1.63,2.82-4.69,3.73-6a37.4,37.4,0,0,0,21.19,2.39,40.63,40.63,0,0,1,3.15,10.05c.53,3.27.63,7.54-.32,10.39l7.34-1.42c-2-2.3-3.45-6.29-4.17-9.52a40.55,40.55,0,0,1-.81-10.81,37.36,37.36,0,0,0,17.86-12.77c3.49,1.21,10.89,3.73,15.48,6.83l2.36-4.55c-4.64-1.75-10.49-5.82-14.05-8.38a37.22,37.22,0,0,0,3.83-16,28,28,0,0,1,9.54,1.76l.31-3.8a28.44,28.44,0,0,1-9.87.19,37.06,37.06,0,0,0-2.24-11.39c2.93-1.79,4.77-2.83,5.52-3.27,4.69-2.67,11.37-5.26,16.7-5Z" transform="translate(175.78)"/><path class="cls-2" d="M773.54,420.87a87.42,87.42,0,0,1,70.09,139.65l44.5,56.68-67.39-35.33a87.42,87.42,0,1,1-47.2-161Z" transform="translate(175.78)"/><path class="cls-3" d="M713.18,528.9a24.76,24.76,0,0,0,12.13,3.46c9.52,0,12.47-6.07,12.38-10.62-.08-7.66-7-10.95-14.15-10.95h-4.13v-5.56h4.13c5.39,0,12.22-2.78,12.22-9.26,0-4.38-2.78-8.26-9.61-8.26a20.15,20.15,0,0,0-10.95,3.62l-1.94-5.39a26.11,26.11,0,0,1,14.32-4.21c10.79,0,15.67,6.4,15.67,13.06,0,5.64-3.37,10.44-10.1,12.89v.16c6.73,1.35,12.21,6.41,12.21,14.07,0,8.76-6.82,16.43-20,16.43-6.15,0-11.55-1.94-14.24-3.71Z" transform="translate(175.78)"/><path class="cls-3" d="M754,523.51c0-6.9,4.12-11.79,10.86-14.65l-.08-.26c-6.07-2.86-8.68-7.58-8.68-12.3,0-8.67,7.33-14.57,16.93-14.57,10.62,0,15.93,6.66,15.93,13.48,0,4.63-2.28,9.6-9,12.8v.26c6.83,2.69,11,7.49,11,14.15,0,9.52-8.17,15.92-18.62,15.92C760.85,538.34,754,531.52,754,523.51Zm29.48-.33c0-6.66-4.63-9.86-12-12-6.41,1.86-9.86,6.07-9.86,11.29-.25,5.56,4,10.45,11,10.45C779.13,533,783.43,528.82,783.43,523.18ZM763,495.8c0,5.47,4.13,8.42,10.45,10.11,4.72-1.6,8.34-5,8.34-9.94,0-4.38-2.61-8.93-9.27-8.93C766.42,487,763,491.08,763,495.8Z" transform="translate(175.78)"/><path class="cls-3" d="M832.71,490.57c-.09,9.69-7,14.07-13.48,14.07-7.5,0-13.4-5.39-13.4-13.65,0-8.76,6.32-14.15,13.57-14.15C827.57,476.84,832.71,482.66,832.71,490.57Zm-21.23.26c0,5.56,3.62,9.6,7.83,9.6,4.47,0,7.75-3.88,7.75-9.69,0-4.21-2.27-9.69-7.83-9.69C813.84,481.05,811.48,486.28,811.48,490.83Z" transform="translate(175.78)"/><path class="cls-8" d="M834.37,1720.88s2.27,40.16,2.29,40.24c.83,5.1,4.12,17.7,4.12,22.33,0,17.42-77.47-14.78-60.11-22.49,1.57-.7,9.8-6,10.32-11.91.8-9.13,2.82-27.61,2.82-27.61Z" transform="translate(175.78)"/><path class="cls-9" d="M780.86,1760.79s18.19,5.33,27.51,6.66,21.6-9.88,28.19-6.85c7.25,3.33,6.52,36.16,6.52,36.16s-98,7.12-125.46-1.71C706.76,1791.55,743.68,1773.2,780.86,1760.79Z" transform="translate(175.78)"/><path class="cls-8" d="M1005.06,1724.73s2.27,40.16,2.29,40.25c.83,5.1,4.12,17.69,4.12,22.33,0,17.41-77.47-14.78-60.11-22.5,1.57-.7,12.25-9.93,12.76-15.85.8-9.13.38-23.66.38-23.66Z" transform="translate(175.78)"/><path class="cls-9" d="M951.55,1764.64s18.19,5.33,27.51,6.66,21.6-9.88,28.19-6.85c7.25,3.33,7.54,33.34,7.54,33.34s-103.81,7.53-128.21.46C875.61,1795.08,914.37,1777.05,951.55,1764.64Z" transform="translate(175.78)"/><path class="cls-7" d="M882.28,1145l-32.75,14.13-68.9,329,2.79,246.67,55.23,1.28s25.69-215.77,25.69-232.49,119-292.63,119-292.63Z" transform="translate(175.78)"/><path class="cls-10" d="M896.31,1166.52s35.39,250.12,35.39,292.85,19.56,281.91,19.56,281.91l55.37-.32s4-72.9,9.93-180.15c.93-16.8-1.2-50.69,0-68.08,8.61-125.07,25.65-242.81,17.51-289.48-1.31-7.51-3.77-27.16-8.56-32.12C989.25,1133.63,896.31,1166.52,896.31,1166.52Z" transform="translate(175.78)"/><path class="cls-11" d="M998.76,784s38.2,5.32,48.25,12.7c11.33,8.32,23.9,26.92,23.9,26.92s-46.91,221.72-47,259c-.07,28.87,10.15,99.74,10.15,99.74s-141.74,23.07-195.42,1.88c0,0,14.66-97.09,17-120.55,2.15-22,20.27-223.4,24.89-237.45,4.19-12.76,11.84-35.67,37.74-41.32S998.76,784,998.76,784Z" transform="translate(175.78)"/><path class="cls-8" d="M988.32,724.3l9.46,61.91s-34.53,73.72-55.15,67.33C925.33,848.18,936,783,936,783s9.43-35,6.6-52.56S988.32,724.3,988.32,724.3Z" transform="translate(175.78)"/><path class="cls-2" d="M942.57,730.39c-2.82-17.53,45.75-6.09,45.75-6.09a70.29,70.29,0,0,1-2.15,9.58c-6.95,18.42-30.93,27.5-45.6,28C942,752.46,943.73,737.57,942.57,730.39Z" transform="translate(175.78)"/><path class="cls-8" d="M988.15,637.57c1.3-.65,19.11,68.76,3.22,90.29s-50.51,32-65,18.21c-16-15.27-24.16-91.16,1.74-114.42S988.15,637.57,988.15,637.57Z" transform="translate(175.78)"/><path class="cls-4" d="M934.45,592.67c22.39-1,38,13.46,43.87,18.5,10,0,24.14,3.87,40.72,25.11,20.38,26.13,11.39,58.75-6.72,76.36s-21.77,26.25-21.77,26.25c-3.13-6.64-3.16-13.65-3.23-21a42.16,42.16,0,0,1,1.71-13.3c3.59-10.77-12.27-15.79-17.48-23.79-4-6.16-3.5-23.16-11.24-32.4a34.66,34.66,0,0,0-8.16-6.45c-7.09-3.56-18.28-4.9-31.74-.2S884.08,594.83,934.45,592.67Z" transform="translate(175.78)"/><path class="cls-12" d="M932.73,951.93c-20.49,7.14-35.65,12.16-35.65,12.16l-15.73-51.74L884.61,820l-40,55s-13.15,114.07,12,132.42c15.39,11.2,54.15,0,94.46-17Z" transform="translate(175.78)"/><path class="cls-6" d="M912,786.73s-47.89,9.67-65.9,38.62c-16.72,26.86-12.38,138.51-11.67,154.41l59.43-30.42s-7.23-37.81-8.52-50.57C877.22,818.16,912,786.73,912,786.73Z" transform="translate(175.78)"/><path class="cls-8" d="M854.14,935.13s109.12,114.65,150.24,105.29c26.84-6.12,56-119.75,56-119.75l-43-72L984.84,968c-9.22-7.28-112.06-49.93-118.51-60.78-7-11.8-26.79-33.29-28.11-34.74s-9.27-4.27-11.4-2.14c-3.82,3.8-3.44,20.06-4.33,24.33s.51,7.27-.2,11.26C817.87,931.11,854.14,935.13,854.14,935.13Z" transform="translate(175.78)"/><path class="cls-6" d="M1043.38,796.69a17,17,0,0,0-8.2,3.19,75.56,75.56,0,0,0-25.3,33.75c-7.29,19.3-31.39,124.8-31.39,124.8l64.49,46c9.87-26.71,18.69-53.87,26.51-81.24,5.37-18.78,10.36-37.79,13.45-57.1,3.16-19.72,4.35-43.19-11.37-58.19C1064.89,801.49,1053.26,795.48,1043.38,796.69Z" transform="translate(175.78)"/><path class="cls-12" d="M1088.17,882.12c-1-4.59,1.88-16.4-2.23-18.7-4.45-2.49-14.8,5-20.49,9.64a55.79,55.79,0,0,1,9-9.64c4.83-3.91.21-12.13-6.86-4.19,0,0-19,12.75-22.84,21.55s-5.17,21.52-5.17,21.52c-7.83,6.46-76.07,29.34-106.64,40.62l46.51,22,5.34,3.15c46.16-22.11,81.73-39.45,81.73-39.45s23.58-7,23.58-26.69A131.5,131.5,0,0,0,1088.17,882.12Z" transform="translate(175.78)"/><path class="cls-8" d="M866.33,907.26s-4.12-23.8-10.76-31.52L848.92,868s-9.76-7.4-13.73-3.43,6.6,13,6.6,13Z" transform="translate(175.78)"/><path class="cls-5" d="M907.73,701.51s3.37-8,12.38-6.43,44.18-.35,44.18-.35-.53,15.47,2.75,22.06c2.55,5.12,19.13,17.09,19.13,17.09s-12.7,18.56-46.8,23.71S907.73,701.51,907.73,701.51Z" transform="translate(175.78)"/><path class="cls-5" d="M979.22,677.45l-2.36,1.25a20.58,20.58,0,0,0-7.91,7.39L960.31,700l3.22,5.68Z" transform="translate(175.78)"/><path class="cls-5" d="M980.26,732.6l5.91,1.28s5.8-31.79,5-32.64a4.54,4.54,0,0,1-1-2.41L985.73,700Z" transform="translate(175.78)"/><path class="cls-8" d="M973.94,693.24c.86,8.62,5.62,15.21,10.63,14.71s8.38-7.9,7.52-16.52-5.62-15.21-10.63-14.71S973.08,684.62,973.94,693.24Z" transform="translate(175.78)"/><polygon class="cls-13" points="1646.67 762.3 1603.88 745.85 1571.97 786.73 1606.88 755.47 1647.79 770.3 1697.41 731.6 1646.67 762.3"/><polygon class="cls-13" points="1582.44 809.05 1620.18 813.39 1631.76 834.45 1685.79 821.75 1628.75 841.64 1616.74 817.34 1582.44 809.05"/><polygon class="cls-13" points="1559.71 741.72 1565.68 698.88 1610.02 683.82 1619.53 655.52 1615.29 687.48 1571.97 701.39 1559.71 741.72"/><circle class="cls-14" cx="1406.59" cy="1430.67" r="29.36"/><circle class="cls-3" cx="1406.59" cy="1430.67" r="16.49"/><path class="cls-14" d="M1046.62,1165.31a31.64,31.64,0,1,1-31.64-31.64A31.65,31.65,0,0,1,1046.62,1165.31Z" transform="translate(175.78)"/><path class="cls-3" d="M1015,1181.31a16,16,0,1,1,16-16A16,16,0,0,1,1015,1181.31Z" transform="translate(175.78)"/><path class="cls-14" d="M1302.61,680.73a34,34,0,1,1-34-34A34,34,0,0,1,1302.61,680.73Z" transform="translate(175.78)"/><path class="cls-3" d="M1268.63,701.84a21.11,21.11,0,1,1,21.11-21.11A21.13,21.13,0,0,1,1268.63,701.84Z" transform="translate(175.78)"/><polygon class="cls-14" points="1256.45 1084.65 1216.89 1100.07 1229.05 1112.9 1209.75 1133.67 1244.49 1115.79 1230.66 1102.93 1256.45 1084.65"/><polygon class="cls-14" points="1480.94 577.37 1451.17 607.64 1467.52 614.37 1458.43 641.23 1482.79 610.68 1464.9 604.61 1480.94 577.37"/><polygon class="cls-14" points="1540.65 639.21 1498.23 637.49 1504.23 654.12 1478.23 665.42 1517.22 662.95 1509.7 645.62 1540.65 639.21"/><polygon class="cls-14" points="1299.66 1402.95 1338.83 1419.32 1338.99 1401.65 1367.3 1400.09 1329.89 1388.84 1330.91 1407.71 1299.66 1402.95"/><polygon class="cls-14" points="1340.46 1336.54 1340.98 1378.99 1357.27 1372.13 1369.93 1397.5 1365.41 1358.69 1348.5 1367.11 1340.46 1336.54"/><path class="cls-14" d="M890.06,766.59c-4.26-2.09-10.6-1-15.16-.27-15.72,2.46-18.58,10.09-23.53,20-6,12-17.32,12.63-20.67,21.91-2.27,6.3,1.72,12.71,0,19-1.52,5.44-6.37,9.24-8.31,14.51-1.12,3-.83,6.14-1.23,9.28-1,8.28-10.88,11.17-14.71,25-1.89,6.86-2,14.09-2.13,21.16,0,2.44,3.76,2.44,3.8,0,.3-14.94,1.09-24.06,10.14-33.8,10.68-11.51,4.67-15,8.86-22.69,1.27-2.35,3-4.43,4.42-6.67,8.52-13.21-4.11-21,7.21-30.13,3.71-3,8.12-5.1,11.39-8.64,3.77-4.07,5.46-9.39,8.12-14.15,8.24-14.69,26.31-10.57,31.82-13.23a.76.76,0,0,0,0-1.31Z" transform="translate(175.78)"/><path class="cls-14" d="M1030.51,757.46a18.77,18.77,0,0,0,9.45,12.85c9.23,5.11,20.31-.74,25.42,7.15,1.58,2.43,2.4,5.28,3.93,7.75,7.09,11.42,24.27,3.52,25.13,15.4.41,5.67-2.13,11.38.06,16.93,2.31,5.89,9.86,7.94,9.21,15.11-.61,6.73-4.57,12.57-3.92,19.53.39,4.2,1.93,8.11,3.17,12.1,6.19,19.85,3.36,33.74,3.21,39.63a2,2,0,0,0,3.85.52c3.78-13.4.34-32.09-3.94-45.34-3.64-11.3-.95-13.06,1.33-22.05,1.54-6.07.61-11.25-4-15.62-2.47-2.31-4.95-4.21-5.4-7.8-.71-5.84,4.11-17.2-4.71-22.45-4.51-2.68-10-2.19-14.9-3.71-6.38-2-6.9-8.29-10.51-13-4.24-5.53-11-5.07-17.27-5.18-8.24-.15-14.89-4.51-17.34-12.6a1.42,1.42,0,0,0-2.73.76Z" transform="translate(175.78)"/></svg>