<svg xmlns="http://www.w3.org/2000/svg" viewBox="0 0 1000 800"><defs><style>.cls-1{fill:#d1e7f5;}.cls-2{opacity:0.4;}.cls-3{fill:#fff;}.cls-4{fill:#ddc8ac;}.cls-5{fill:#1a3151;}.cls-6{fill:#b77858;}.cls-7{fill:#3ababa;}.cls-8{fill:#145566;}.cls-9{fill:#b5d6ca;}</style></defs><g id="background"><rect class="cls-1" width="1000" height="800"/></g><g id="shadow"><g class="cls-2"><path class="cls-3" d="M466.21,631c-26.13,0-52.25.44-78.33,2.27-9.83.69-19.46,2.2-29.31,2.82-19.69,1.22-39,3.5-58.77,4.55-15.91.84-31.89,1.34-47.75,2.42a266.64,266.64,0,0,1-46.09-.89c-10.92-1.23-21.9-1.93-32.64-3.9a205.52,205.52,0,0,0-37.59-3.74c-17.85.08-35.23.09-52.32,4-6,1.37-13.34,3.62-17.89,6.5-10.43,6.59-11.84,23-1.43,29.86,17.54,11.5,55,16,79.53,16.23,26.93.23,53.09-1,80.06-1.77,25.06-.69,50.06-1.67,75.16-1.63,51.27.07,102.54,0,153.72-2.16,48.08-2,96.28-1.33,144.46-1.33,49.42,0,98.49.24,147.55,4.38,21.37,1.8,43.15,2.43,64.63,3.7,19.24,1.13,37.73,0,56.89-1.07a201.27,201.27,0,0,0,46.69-7.89c11.57-3.48,32.2-14.31,35.75-22.63,10-23.32-140.2-22.76-163.25-22.7-25.79,0-51.78.59-77.55,0a284.49,284.49,0,0,1-32.1-3.06c-10.54-1.46-21.15-1.09-31.84-1.7-44.56-2.55-89.22-2.18-133.93-2.18C495.32,631,480.76,631,466.21,631Z" transform="translate(0 0)"/></g></g><g id="object"><polygon class="cls-4" points="742.44 261.7 734.63 257.13 732.6 249.16 730.77 248.75 730.2 251.09 726.7 244.97 721.49 243.04 715.46 247.45 713.22 255.04 718.04 260.84 726.3 263.81 736.73 270.55 742.44 261.7"/><polygon class="cls-3" points="743.18 256.51 731.47 271 774.82 314.98 786.5 318.92 836.28 277.41 822.97 248.99 785.84 281.99 743.18 256.51"/><polygon class="cls-5" points="913.09 642.2 914.83 650.53 901.05 662.41 891.55 655.84 897.57 645.73 911.35 633.86 913.09 642.2"/><polygon class="cls-5" points="864.91 385.81 880.28 422.87 881.73 527.15 913.34 639.32 898.64 646.14 834.15 515.89 826.81 474.64 823.89 387.76 864.91 385.81"/><polygon class="cls-5" points="790.49 394.11 789.28 503.4 808.98 644.31 824.12 644.31 833.69 514.29 854.41 384.27 790.49 394.11"/><polygon class="cls-5" points="824.03 642.43 824.03 650.99 807.66 659.55 799.47 650.99 807.66 642.43 824.03 642.43"/><path class="cls-3" d="M820.31,246.13l40.23-1.56S884.61,266.65,897,324c12.67,58.43-2.34,142.53-2.34,142.53s-107.92-15-125.62-17.36l27-115.35Z" transform="translate(0 0)"/><path class="cls-6" d="M834.73,250.42,848.82,249a77.3,77.3,0,0,0-.75-11.77c3.92-1.43,8.45-3.58,9.13-7.86a12.75,12.75,0,0,0-.22-4.08q-1.37-8.34-2.74-16.7a15.46,15.46,0,0,0-1.65-5.56c-1.75-2.9-5.16-4.17-8.39-4.76-8.25-1.51-17.23.34-23.63,6a13.26,13.26,0,0,0-4,5.5c-1.16,3.38-.3,7.11.57,10.58l2.4,9.62c.92,3.69,2.25,7.89,5.65,9.27,1.8.74,3.93.53,5.56,1.62C833.63,242.74,833.23,247.22,834.73,250.42Z" transform="translate(0 0)"/><path class="cls-5" d="M788.83,194.76A49.53,49.53,0,0,1,790,183.6c1.25-6,8-8.67,13.84-9.09,12.62-.92,24.8-6.9,37.12-2.28,7,2.63,16.51,3.27,22.88,7a19.3,19.3,0,0,1,6.44,6.66,30.81,30.81,0,0,1,0,31.35,42.63,42.63,0,0,1-4.43,5.81c-3.32,3.77-7.31,8.42-11.88,9.81-.11-4.28,3.64-17.76.5-21.27-5-5.58-16.26-3.65-22.44-2.29-6.75,1.49-12.77,6.47-19.47,7.53-4.81.76-11-1.71-15-4.32C791.14,208.41,789,201.66,788.83,194.76Z" transform="translate(0 0)"/><path class="cls-7" d="M831.41,251.33,789.12,428.21l-3.47,23.2,52.69,7.25s-2.08-84.7-1.39-96,8.51-35.72,9.71-62c.69-15.22,5.32-42.56,2.08-51.47Z" transform="translate(0 0)"/><path class="cls-8" d="M763.89,363.09c1.61-42.92-6.36-78.4-25.14-107.41C700.24,196.16,646.31,169,583.63,164c-32.15-2.58-63.35,6.24-93,21.45-6.49,3.32-12.87,7-19.19,10.7-44.36,26.27-69,66.61-66.95,125.71,1.18,33.16-12.94,57.31-33.81,77.59-4.55,4.44-9.09,8.82-12.45,14.56-5.74,9.81-4.56,17.1,4,23.27,5.48,4,11.27,7.35,16.08,12.48,7.33,7.83,7.8,12.45,2.21,22.13-6.31,10.9-6.27,11.35,3.41,19.09,2.6,2.08,5.35,3.65,1.7,7.58-5.37,5.79-3.45,11.43,1.18,15.65,6.49,5.92,7.46,13.51,6.24,22-1.06,7.41-2.63,14.72-4,22.08-3.58,19.86,1.4,29.08,18.56,34.29,17.91,5.45,35.73.73,53.58-1.07,12-1.21,23.76-5.56,36-2.39,7.95,2,12.34,7.14,13.36,16.45,1.49,13.58,5.35,26.55,7.56,39.91,1.8,10.9,6.34,14.3,15.72,13.86,38.29-1.79,149.68-.28,167-1.27,11.21-.64,11.18-1,7.61-13-6.4-21.58-13.71-42.79-19.07-64.81-7-28.74-3.42-60.3,11.61-84.94,7-11.54,15.47-21.63,23.65-32C748.75,432.74,761.84,396.88,763.89,363.09Z" transform="translate(0 0)"/><path class="cls-9" d="M601.46,455.49c.95-26.17,4.45-49.68-19-66-16.37-11.4-39.36-8.32-58-11.64-39-6.94-95.62,2.36-93.23-59.53,1-25.58,13.11-33.16,26.43-52,12.71-18,16.38-33.24,37.84-42.58,9.28-4,18.17-5.06,27.42-9.34,13.38-6.18,16-12.56,33.17-11.3,9,.66,15.55,3.85,24.37,2.9,11.55-1.24,16.51-9.18,29.87-7.17,9,1.35,14.7,8.29,22.62,10.9,8.33,2.75,17.32,2,25.36,4.64,22,7.23,24.9,17.36,39.74,33.92,17.52,19.55,24.86,25.15,29,53.79,3.61,24.68,12.39,49.17,3.11,73-7.09,18.23-17,42.57-29.54,57.15C687.41,447.58,669,453,659.45,472.37c-9.34,18.88-6.26,35-30.85,23.2C613.9,488.53,600.87,471.74,601.46,455.49Z" transform="translate(0 0)"/><polygon class="cls-3" points="866.88 278.25 815.41 329.07 739.06 305.26 733.59 323.23 817.51 363.37 839.6 363.37 886.26 321.86 866.88 278.25"/><polygon class="cls-6" points="734.09 321.61 720.79 321.86 712.68 309.88 733.31 297.89 739.06 305.26 734.09 321.61"/></g></svg>